%TF.GenerationSoftware,KiCad,Pcbnew,9.0.6*%
%TF.CreationDate,2025-12-16T16:24:00-03:00*%
%TF.ProjectId,shield teensy_v3,73686965-6c64-4207-9465-656e73795f76,rev?*%
%TF.SameCoordinates,Original*%
%TF.FileFunction,Drillmap*%
%TF.FilePolarity,Positive*%
%FSLAX45Y45*%
G04 Gerber Fmt 4.5, Leading zero omitted, Abs format (unit mm)*
G04 Created by KiCad (PCBNEW 9.0.6) date 2025-12-16 16:24:00*
%MOMM*%
%LPD*%
G01*
G04 APERTURE LIST*
%ADD10C,0.100000*%
%ADD11C,0.200000*%
G04 APERTURE END LIST*
D10*
X14334000Y-6237000D02*
X20173000Y-6237000D01*
X20173000Y-13145000D01*
X14334000Y-13145000D01*
X14334000Y-6237000D01*
D11*
X14589777Y-13461484D02*
X14589777Y-13261484D01*
X14589777Y-13261484D02*
X14637396Y-13261484D01*
X14637396Y-13261484D02*
X14665967Y-13271008D01*
X14665967Y-13271008D02*
X14685015Y-13290055D01*
X14685015Y-13290055D02*
X14694539Y-13309103D01*
X14694539Y-13309103D02*
X14704062Y-13347198D01*
X14704062Y-13347198D02*
X14704062Y-13375769D01*
X14704062Y-13375769D02*
X14694539Y-13413865D01*
X14694539Y-13413865D02*
X14685015Y-13432912D01*
X14685015Y-13432912D02*
X14665967Y-13451960D01*
X14665967Y-13451960D02*
X14637396Y-13461484D01*
X14637396Y-13461484D02*
X14589777Y-13461484D01*
X14789777Y-13461484D02*
X14789777Y-13328150D01*
X14789777Y-13366246D02*
X14799301Y-13347198D01*
X14799301Y-13347198D02*
X14808824Y-13337674D01*
X14808824Y-13337674D02*
X14827872Y-13328150D01*
X14827872Y-13328150D02*
X14846920Y-13328150D01*
X14913586Y-13461484D02*
X14913586Y-13328150D01*
X14913586Y-13261484D02*
X14904062Y-13271008D01*
X14904062Y-13271008D02*
X14913586Y-13280531D01*
X14913586Y-13280531D02*
X14923110Y-13271008D01*
X14923110Y-13271008D02*
X14913586Y-13261484D01*
X14913586Y-13261484D02*
X14913586Y-13280531D01*
X15037396Y-13461484D02*
X15018348Y-13451960D01*
X15018348Y-13451960D02*
X15008824Y-13432912D01*
X15008824Y-13432912D02*
X15008824Y-13261484D01*
X15142158Y-13461484D02*
X15123110Y-13451960D01*
X15123110Y-13451960D02*
X15113586Y-13432912D01*
X15113586Y-13432912D02*
X15113586Y-13261484D01*
X15370729Y-13461484D02*
X15370729Y-13261484D01*
X15370729Y-13261484D02*
X15437396Y-13404341D01*
X15437396Y-13404341D02*
X15504062Y-13261484D01*
X15504062Y-13261484D02*
X15504062Y-13461484D01*
X15685015Y-13461484D02*
X15685015Y-13356722D01*
X15685015Y-13356722D02*
X15675491Y-13337674D01*
X15675491Y-13337674D02*
X15656443Y-13328150D01*
X15656443Y-13328150D02*
X15618348Y-13328150D01*
X15618348Y-13328150D02*
X15599301Y-13337674D01*
X15685015Y-13451960D02*
X15665967Y-13461484D01*
X15665967Y-13461484D02*
X15618348Y-13461484D01*
X15618348Y-13461484D02*
X15599301Y-13451960D01*
X15599301Y-13451960D02*
X15589777Y-13432912D01*
X15589777Y-13432912D02*
X15589777Y-13413865D01*
X15589777Y-13413865D02*
X15599301Y-13394817D01*
X15599301Y-13394817D02*
X15618348Y-13385293D01*
X15618348Y-13385293D02*
X15665967Y-13385293D01*
X15665967Y-13385293D02*
X15685015Y-13375769D01*
X15780253Y-13328150D02*
X15780253Y-13528150D01*
X15780253Y-13337674D02*
X15799301Y-13328150D01*
X15799301Y-13328150D02*
X15837396Y-13328150D01*
X15837396Y-13328150D02*
X15856443Y-13337674D01*
X15856443Y-13337674D02*
X15865967Y-13347198D01*
X15865967Y-13347198D02*
X15875491Y-13366246D01*
X15875491Y-13366246D02*
X15875491Y-13423388D01*
X15875491Y-13423388D02*
X15865967Y-13442436D01*
X15865967Y-13442436D02*
X15856443Y-13451960D01*
X15856443Y-13451960D02*
X15837396Y-13461484D01*
X15837396Y-13461484D02*
X15799301Y-13461484D01*
X15799301Y-13461484D02*
X15780253Y-13451960D01*
X15961205Y-13442436D02*
X15970729Y-13451960D01*
X15970729Y-13451960D02*
X15961205Y-13461484D01*
X15961205Y-13461484D02*
X15951682Y-13451960D01*
X15951682Y-13451960D02*
X15961205Y-13442436D01*
X15961205Y-13442436D02*
X15961205Y-13461484D01*
X15961205Y-13337674D02*
X15970729Y-13347198D01*
X15970729Y-13347198D02*
X15961205Y-13356722D01*
X15961205Y-13356722D02*
X15951682Y-13347198D01*
X15951682Y-13347198D02*
X15961205Y-13337674D01*
X15961205Y-13337674D02*
X15961205Y-13356722D01*
M02*
