%TF.GenerationSoftware,KiCad,Pcbnew,9.0.6*%
%TF.CreationDate,2025-12-16T16:24:00-03:00*%
%TF.ProjectId,shield teensy_v3,73686965-6c64-4207-9465-656e73795f76,rev?*%
%TF.SameCoordinates,Original*%
%TF.FileFunction,Drillmap*%
%TF.FilePolarity,Positive*%
%FSLAX45Y45*%
G04 Gerber Fmt 4.5, Leading zero omitted, Abs format (unit mm)*
G04 Created by KiCad (PCBNEW 9.0.6) date 2025-12-16 16:24:00*
%MOMM*%
%LPD*%
G01*
G04 APERTURE LIST*
%ADD10C,0.100000*%
%ADD11C,0.200000*%
%ADD12C,0.320000*%
G04 APERTURE END LIST*
D10*
X14334000Y-6237000D02*
X20173000Y-6237000D01*
X20173000Y-13145000D01*
X14334000Y-13145000D01*
X14334000Y-6237000D01*
D11*
D10*
X15474119Y-7652500D02*
X15574119Y-7752500D01*
X15574119Y-7652500D02*
X15474119Y-7752500D01*
X15474119Y-7906500D02*
X15574119Y-8006500D01*
X15574119Y-7906500D02*
X15474119Y-8006500D01*
X15474119Y-8160500D02*
X15574119Y-8260500D01*
X15574119Y-8160500D02*
X15474119Y-8260500D01*
X15474119Y-8414500D02*
X15574119Y-8514500D01*
X15574119Y-8414500D02*
X15474119Y-8514500D01*
X15474119Y-8668500D02*
X15574119Y-8768500D01*
X15574119Y-8668500D02*
X15474119Y-8768500D01*
X15474119Y-8922500D02*
X15574119Y-9022500D01*
X15574119Y-8922500D02*
X15474119Y-9022500D01*
X15474119Y-9176500D02*
X15574119Y-9276500D01*
X15574119Y-9176500D02*
X15474119Y-9276500D01*
X15474119Y-9430500D02*
X15574119Y-9530500D01*
X15574119Y-9430500D02*
X15474119Y-9530500D01*
X15474119Y-9684500D02*
X15574119Y-9784500D01*
X15574119Y-9684500D02*
X15474119Y-9784500D01*
X15474119Y-9938500D02*
X15574119Y-10038500D01*
X15574119Y-9938500D02*
X15474119Y-10038500D01*
X15474119Y-10192500D02*
X15574119Y-10292500D01*
X15574119Y-10192500D02*
X15474119Y-10292500D01*
X15474119Y-10446500D02*
X15574119Y-10546500D01*
X15574119Y-10446500D02*
X15474119Y-10546500D01*
X15474119Y-10700500D02*
X15574119Y-10800500D01*
X15574119Y-10700500D02*
X15474119Y-10800500D01*
X15474119Y-10954500D02*
X15574119Y-11054500D01*
X15574119Y-10954500D02*
X15474119Y-11054500D01*
X16395619Y-7652500D02*
X16495619Y-7752500D01*
X16495619Y-7652500D02*
X16395619Y-7752500D01*
X16395619Y-7906500D02*
X16495619Y-8006500D01*
X16495619Y-7906500D02*
X16395619Y-8006500D01*
X16395619Y-8160500D02*
X16495619Y-8260500D01*
X16495619Y-8160500D02*
X16395619Y-8260500D01*
X16395619Y-8414500D02*
X16495619Y-8514500D01*
X16495619Y-8414500D02*
X16395619Y-8514500D01*
X16395619Y-8668500D02*
X16495619Y-8768500D01*
X16495619Y-8668500D02*
X16395619Y-8768500D01*
X16395619Y-8922500D02*
X16495619Y-9022500D01*
X16495619Y-8922500D02*
X16395619Y-9022500D01*
X16395619Y-9176500D02*
X16495619Y-9276500D01*
X16495619Y-9176500D02*
X16395619Y-9276500D01*
X16395619Y-9430500D02*
X16495619Y-9530500D01*
X16495619Y-9430500D02*
X16395619Y-9530500D01*
X16395619Y-9684500D02*
X16495619Y-9784500D01*
X16495619Y-9684500D02*
X16395619Y-9784500D01*
X16395619Y-9938500D02*
X16495619Y-10038500D01*
X16495619Y-9938500D02*
X16395619Y-10038500D01*
X16395619Y-10192500D02*
X16495619Y-10292500D01*
X16495619Y-10192500D02*
X16395619Y-10292500D01*
X16395619Y-10446500D02*
X16495619Y-10546500D01*
X16495619Y-10446500D02*
X16395619Y-10546500D01*
X16395619Y-10700500D02*
X16495619Y-10800500D01*
X16495619Y-10700500D02*
X16395619Y-10800500D01*
X16395619Y-10954500D02*
X16495619Y-11054500D01*
X16495619Y-10954500D02*
X16395619Y-11054500D01*
X16689000Y-11736000D02*
X16789000Y-11836000D01*
X16789000Y-11736000D02*
X16689000Y-11836000D01*
X16689000Y-11990000D02*
X16789000Y-12090000D01*
X16789000Y-11990000D02*
X16689000Y-12090000D01*
X16689000Y-12244000D02*
X16789000Y-12344000D01*
X16789000Y-12244000D02*
X16689000Y-12344000D01*
X17158000Y-11736000D02*
X17258000Y-11836000D01*
X17258000Y-11736000D02*
X17158000Y-11836000D01*
X17158000Y-11990000D02*
X17258000Y-12090000D01*
X17258000Y-11990000D02*
X17158000Y-12090000D01*
X17158000Y-12244000D02*
X17258000Y-12344000D01*
X17258000Y-12244000D02*
X17158000Y-12344000D01*
X17618000Y-11736000D02*
X17718000Y-11836000D01*
X17718000Y-11736000D02*
X17618000Y-11836000D01*
X17618000Y-11990000D02*
X17718000Y-12090000D01*
X17718000Y-11990000D02*
X17618000Y-12090000D01*
X17618000Y-12244000D02*
X17718000Y-12344000D01*
X17718000Y-12244000D02*
X17618000Y-12344000D01*
X17987000Y-7652500D02*
X18087000Y-7752500D01*
X18087000Y-7652500D02*
X17987000Y-7752500D01*
X17987000Y-7906500D02*
X18087000Y-8006500D01*
X18087000Y-7906500D02*
X17987000Y-8006500D01*
X17987000Y-8160500D02*
X18087000Y-8260500D01*
X18087000Y-8160500D02*
X17987000Y-8260500D01*
X17987000Y-8414500D02*
X18087000Y-8514500D01*
X18087000Y-8414500D02*
X17987000Y-8514500D01*
X17987000Y-8668500D02*
X18087000Y-8768500D01*
X18087000Y-8668500D02*
X17987000Y-8768500D01*
X17987000Y-8922500D02*
X18087000Y-9022500D01*
X18087000Y-8922500D02*
X17987000Y-9022500D01*
X17987000Y-9176500D02*
X18087000Y-9276500D01*
X18087000Y-9176500D02*
X17987000Y-9276500D01*
X17987000Y-9430500D02*
X18087000Y-9530500D01*
X18087000Y-9430500D02*
X17987000Y-9530500D01*
X17987000Y-9684500D02*
X18087000Y-9784500D01*
X18087000Y-9684500D02*
X17987000Y-9784500D01*
X17987000Y-9938500D02*
X18087000Y-10038500D01*
X18087000Y-9938500D02*
X17987000Y-10038500D01*
X17987000Y-10192500D02*
X18087000Y-10292500D01*
X18087000Y-10192500D02*
X17987000Y-10292500D01*
X17987000Y-10446500D02*
X18087000Y-10546500D01*
X18087000Y-10446500D02*
X17987000Y-10546500D01*
X17987000Y-10700500D02*
X18087000Y-10800500D01*
X18087000Y-10700500D02*
X17987000Y-10800500D01*
X17987000Y-10954500D02*
X18087000Y-11054500D01*
X18087000Y-10954500D02*
X17987000Y-11054500D01*
X18922072Y-7652500D02*
X19022072Y-7752500D01*
X19022072Y-7652500D02*
X18922072Y-7752500D01*
X18922072Y-7906500D02*
X19022072Y-8006500D01*
X19022072Y-7906500D02*
X18922072Y-8006500D01*
X18922072Y-8160500D02*
X19022072Y-8260500D01*
X19022072Y-8160500D02*
X18922072Y-8260500D01*
X18922072Y-8414500D02*
X19022072Y-8514500D01*
X19022072Y-8414500D02*
X18922072Y-8514500D01*
X18922072Y-8668500D02*
X19022072Y-8768500D01*
X19022072Y-8668500D02*
X18922072Y-8768500D01*
X18922072Y-8922500D02*
X19022072Y-9022500D01*
X19022072Y-8922500D02*
X18922072Y-9022500D01*
X18922072Y-9176500D02*
X19022072Y-9276500D01*
X19022072Y-9176500D02*
X18922072Y-9276500D01*
X18922072Y-9430500D02*
X19022072Y-9530500D01*
X19022072Y-9430500D02*
X18922072Y-9530500D01*
X18922072Y-9684500D02*
X19022072Y-9784500D01*
X19022072Y-9684500D02*
X18922072Y-9784500D01*
X18922072Y-9938500D02*
X19022072Y-10038500D01*
X19022072Y-9938500D02*
X18922072Y-10038500D01*
X18922072Y-10192500D02*
X19022072Y-10292500D01*
X19022072Y-10192500D02*
X18922072Y-10292500D01*
X18922072Y-10446500D02*
X19022072Y-10546500D01*
X19022072Y-10446500D02*
X18922072Y-10546500D01*
X18922072Y-10700500D02*
X19022072Y-10800500D01*
X19022072Y-10700500D02*
X18922072Y-10800500D01*
X18922072Y-10954500D02*
X19022072Y-11054500D01*
X19022072Y-10954500D02*
X18922072Y-11054500D01*
D12*
X15181000Y-6871000D02*
G75*
G02*
X14861000Y-6871000I-160000J0D01*
G01*
X14861000Y-6871000D02*
G75*
G02*
X15181000Y-6871000I160000J0D01*
G01*
X15181000Y-12465000D02*
G75*
G02*
X14861000Y-12465000I-160000J0D01*
G01*
X14861000Y-12465000D02*
G75*
G02*
X15181000Y-12465000I160000J0D01*
G01*
X19626000Y-6871000D02*
G75*
G02*
X19306000Y-6871000I-160000J0D01*
G01*
X19306000Y-6871000D02*
G75*
G02*
X19626000Y-6871000I160000J0D01*
G01*
X19626000Y-12465000D02*
G75*
G02*
X19306000Y-12465000I-160000J0D01*
G01*
X19306000Y-12465000D02*
G75*
G02*
X19626000Y-12465000I160000J0D01*
G01*
D11*
X14589777Y-13461484D02*
X14589777Y-13261484D01*
X14589777Y-13261484D02*
X14637396Y-13261484D01*
X14637396Y-13261484D02*
X14665967Y-13271008D01*
X14665967Y-13271008D02*
X14685015Y-13290055D01*
X14685015Y-13290055D02*
X14694539Y-13309103D01*
X14694539Y-13309103D02*
X14704062Y-13347198D01*
X14704062Y-13347198D02*
X14704062Y-13375769D01*
X14704062Y-13375769D02*
X14694539Y-13413865D01*
X14694539Y-13413865D02*
X14685015Y-13432912D01*
X14685015Y-13432912D02*
X14665967Y-13451960D01*
X14665967Y-13451960D02*
X14637396Y-13461484D01*
X14637396Y-13461484D02*
X14589777Y-13461484D01*
X14789777Y-13461484D02*
X14789777Y-13328150D01*
X14789777Y-13366246D02*
X14799301Y-13347198D01*
X14799301Y-13347198D02*
X14808824Y-13337674D01*
X14808824Y-13337674D02*
X14827872Y-13328150D01*
X14827872Y-13328150D02*
X14846920Y-13328150D01*
X14913586Y-13461484D02*
X14913586Y-13328150D01*
X14913586Y-13261484D02*
X14904062Y-13271008D01*
X14904062Y-13271008D02*
X14913586Y-13280531D01*
X14913586Y-13280531D02*
X14923110Y-13271008D01*
X14923110Y-13271008D02*
X14913586Y-13261484D01*
X14913586Y-13261484D02*
X14913586Y-13280531D01*
X15037396Y-13461484D02*
X15018348Y-13451960D01*
X15018348Y-13451960D02*
X15008824Y-13432912D01*
X15008824Y-13432912D02*
X15008824Y-13261484D01*
X15142158Y-13461484D02*
X15123110Y-13451960D01*
X15123110Y-13451960D02*
X15113586Y-13432912D01*
X15113586Y-13432912D02*
X15113586Y-13261484D01*
X15370729Y-13461484D02*
X15370729Y-13261484D01*
X15370729Y-13261484D02*
X15437396Y-13404341D01*
X15437396Y-13404341D02*
X15504062Y-13261484D01*
X15504062Y-13261484D02*
X15504062Y-13461484D01*
X15685015Y-13461484D02*
X15685015Y-13356722D01*
X15685015Y-13356722D02*
X15675491Y-13337674D01*
X15675491Y-13337674D02*
X15656443Y-13328150D01*
X15656443Y-13328150D02*
X15618348Y-13328150D01*
X15618348Y-13328150D02*
X15599301Y-13337674D01*
X15685015Y-13451960D02*
X15665967Y-13461484D01*
X15665967Y-13461484D02*
X15618348Y-13461484D01*
X15618348Y-13461484D02*
X15599301Y-13451960D01*
X15599301Y-13451960D02*
X15589777Y-13432912D01*
X15589777Y-13432912D02*
X15589777Y-13413865D01*
X15589777Y-13413865D02*
X15599301Y-13394817D01*
X15599301Y-13394817D02*
X15618348Y-13385293D01*
X15618348Y-13385293D02*
X15665967Y-13385293D01*
X15665967Y-13385293D02*
X15685015Y-13375769D01*
X15780253Y-13328150D02*
X15780253Y-13528150D01*
X15780253Y-13337674D02*
X15799301Y-13328150D01*
X15799301Y-13328150D02*
X15837396Y-13328150D01*
X15837396Y-13328150D02*
X15856443Y-13337674D01*
X15856443Y-13337674D02*
X15865967Y-13347198D01*
X15865967Y-13347198D02*
X15875491Y-13366246D01*
X15875491Y-13366246D02*
X15875491Y-13423388D01*
X15875491Y-13423388D02*
X15865967Y-13442436D01*
X15865967Y-13442436D02*
X15856443Y-13451960D01*
X15856443Y-13451960D02*
X15837396Y-13461484D01*
X15837396Y-13461484D02*
X15799301Y-13461484D01*
X15799301Y-13461484D02*
X15780253Y-13451960D01*
X15961205Y-13442436D02*
X15970729Y-13451960D01*
X15970729Y-13451960D02*
X15961205Y-13461484D01*
X15961205Y-13461484D02*
X15951682Y-13451960D01*
X15951682Y-13451960D02*
X15961205Y-13442436D01*
X15961205Y-13442436D02*
X15961205Y-13461484D01*
X15961205Y-13337674D02*
X15970729Y-13347198D01*
X15970729Y-13347198D02*
X15961205Y-13356722D01*
X15961205Y-13356722D02*
X15951682Y-13347198D01*
X15951682Y-13347198D02*
X15961205Y-13337674D01*
X15961205Y-13337674D02*
X15961205Y-13356722D01*
D10*
X14229000Y-13740000D02*
X14329000Y-13840000D01*
X14329000Y-13740000D02*
X14229000Y-13840000D01*
D11*
X14694539Y-13881484D02*
X14580253Y-13881484D01*
X14637396Y-13881484D02*
X14637396Y-13681484D01*
X14637396Y-13681484D02*
X14618348Y-13710055D01*
X14618348Y-13710055D02*
X14599301Y-13729103D01*
X14599301Y-13729103D02*
X14580253Y-13738627D01*
X14780253Y-13862436D02*
X14789777Y-13871960D01*
X14789777Y-13871960D02*
X14780253Y-13881484D01*
X14780253Y-13881484D02*
X14770729Y-13871960D01*
X14770729Y-13871960D02*
X14780253Y-13862436D01*
X14780253Y-13862436D02*
X14780253Y-13881484D01*
X14913586Y-13681484D02*
X14932634Y-13681484D01*
X14932634Y-13681484D02*
X14951682Y-13691008D01*
X14951682Y-13691008D02*
X14961205Y-13700531D01*
X14961205Y-13700531D02*
X14970729Y-13719579D01*
X14970729Y-13719579D02*
X14980253Y-13757674D01*
X14980253Y-13757674D02*
X14980253Y-13805293D01*
X14980253Y-13805293D02*
X14970729Y-13843388D01*
X14970729Y-13843388D02*
X14961205Y-13862436D01*
X14961205Y-13862436D02*
X14951682Y-13871960D01*
X14951682Y-13871960D02*
X14932634Y-13881484D01*
X14932634Y-13881484D02*
X14913586Y-13881484D01*
X14913586Y-13881484D02*
X14894539Y-13871960D01*
X14894539Y-13871960D02*
X14885015Y-13862436D01*
X14885015Y-13862436D02*
X14875491Y-13843388D01*
X14875491Y-13843388D02*
X14865967Y-13805293D01*
X14865967Y-13805293D02*
X14865967Y-13757674D01*
X14865967Y-13757674D02*
X14875491Y-13719579D01*
X14875491Y-13719579D02*
X14885015Y-13700531D01*
X14885015Y-13700531D02*
X14894539Y-13691008D01*
X14894539Y-13691008D02*
X14913586Y-13681484D01*
X15104062Y-13681484D02*
X15123110Y-13681484D01*
X15123110Y-13681484D02*
X15142158Y-13691008D01*
X15142158Y-13691008D02*
X15151682Y-13700531D01*
X15151682Y-13700531D02*
X15161205Y-13719579D01*
X15161205Y-13719579D02*
X15170729Y-13757674D01*
X15170729Y-13757674D02*
X15170729Y-13805293D01*
X15170729Y-13805293D02*
X15161205Y-13843388D01*
X15161205Y-13843388D02*
X15151682Y-13862436D01*
X15151682Y-13862436D02*
X15142158Y-13871960D01*
X15142158Y-13871960D02*
X15123110Y-13881484D01*
X15123110Y-13881484D02*
X15104062Y-13881484D01*
X15104062Y-13881484D02*
X15085015Y-13871960D01*
X15085015Y-13871960D02*
X15075491Y-13862436D01*
X15075491Y-13862436D02*
X15065967Y-13843388D01*
X15065967Y-13843388D02*
X15056443Y-13805293D01*
X15056443Y-13805293D02*
X15056443Y-13757674D01*
X15056443Y-13757674D02*
X15065967Y-13719579D01*
X15065967Y-13719579D02*
X15075491Y-13700531D01*
X15075491Y-13700531D02*
X15085015Y-13691008D01*
X15085015Y-13691008D02*
X15104062Y-13681484D01*
X15294539Y-13681484D02*
X15313586Y-13681484D01*
X15313586Y-13681484D02*
X15332634Y-13691008D01*
X15332634Y-13691008D02*
X15342158Y-13700531D01*
X15342158Y-13700531D02*
X15351682Y-13719579D01*
X15351682Y-13719579D02*
X15361205Y-13757674D01*
X15361205Y-13757674D02*
X15361205Y-13805293D01*
X15361205Y-13805293D02*
X15351682Y-13843388D01*
X15351682Y-13843388D02*
X15342158Y-13862436D01*
X15342158Y-13862436D02*
X15332634Y-13871960D01*
X15332634Y-13871960D02*
X15313586Y-13881484D01*
X15313586Y-13881484D02*
X15294539Y-13881484D01*
X15294539Y-13881484D02*
X15275491Y-13871960D01*
X15275491Y-13871960D02*
X15265967Y-13862436D01*
X15265967Y-13862436D02*
X15256443Y-13843388D01*
X15256443Y-13843388D02*
X15246920Y-13805293D01*
X15246920Y-13805293D02*
X15246920Y-13757674D01*
X15246920Y-13757674D02*
X15256443Y-13719579D01*
X15256443Y-13719579D02*
X15265967Y-13700531D01*
X15265967Y-13700531D02*
X15275491Y-13691008D01*
X15275491Y-13691008D02*
X15294539Y-13681484D01*
X15446920Y-13881484D02*
X15446920Y-13748150D01*
X15446920Y-13767198D02*
X15456443Y-13757674D01*
X15456443Y-13757674D02*
X15475491Y-13748150D01*
X15475491Y-13748150D02*
X15504063Y-13748150D01*
X15504063Y-13748150D02*
X15523110Y-13757674D01*
X15523110Y-13757674D02*
X15532634Y-13776722D01*
X15532634Y-13776722D02*
X15532634Y-13881484D01*
X15532634Y-13776722D02*
X15542158Y-13757674D01*
X15542158Y-13757674D02*
X15561205Y-13748150D01*
X15561205Y-13748150D02*
X15589777Y-13748150D01*
X15589777Y-13748150D02*
X15608824Y-13757674D01*
X15608824Y-13757674D02*
X15618348Y-13776722D01*
X15618348Y-13776722D02*
X15618348Y-13881484D01*
X15713586Y-13881484D02*
X15713586Y-13748150D01*
X15713586Y-13767198D02*
X15723110Y-13757674D01*
X15723110Y-13757674D02*
X15742158Y-13748150D01*
X15742158Y-13748150D02*
X15770729Y-13748150D01*
X15770729Y-13748150D02*
X15789777Y-13757674D01*
X15789777Y-13757674D02*
X15799301Y-13776722D01*
X15799301Y-13776722D02*
X15799301Y-13881484D01*
X15799301Y-13776722D02*
X15808824Y-13757674D01*
X15808824Y-13757674D02*
X15827872Y-13748150D01*
X15827872Y-13748150D02*
X15856443Y-13748150D01*
X15856443Y-13748150D02*
X15875491Y-13757674D01*
X15875491Y-13757674D02*
X15885015Y-13776722D01*
X15885015Y-13776722D02*
X15885015Y-13881484D01*
X16275491Y-13671960D02*
X16104063Y-13929103D01*
X16532634Y-13681484D02*
X16551682Y-13681484D01*
X16551682Y-13681484D02*
X16570729Y-13691008D01*
X16570729Y-13691008D02*
X16580253Y-13700531D01*
X16580253Y-13700531D02*
X16589777Y-13719579D01*
X16589777Y-13719579D02*
X16599301Y-13757674D01*
X16599301Y-13757674D02*
X16599301Y-13805293D01*
X16599301Y-13805293D02*
X16589777Y-13843388D01*
X16589777Y-13843388D02*
X16580253Y-13862436D01*
X16580253Y-13862436D02*
X16570729Y-13871960D01*
X16570729Y-13871960D02*
X16551682Y-13881484D01*
X16551682Y-13881484D02*
X16532634Y-13881484D01*
X16532634Y-13881484D02*
X16513586Y-13871960D01*
X16513586Y-13871960D02*
X16504063Y-13862436D01*
X16504063Y-13862436D02*
X16494539Y-13843388D01*
X16494539Y-13843388D02*
X16485015Y-13805293D01*
X16485015Y-13805293D02*
X16485015Y-13757674D01*
X16485015Y-13757674D02*
X16494539Y-13719579D01*
X16494539Y-13719579D02*
X16504063Y-13700531D01*
X16504063Y-13700531D02*
X16513586Y-13691008D01*
X16513586Y-13691008D02*
X16532634Y-13681484D01*
X16685015Y-13862436D02*
X16694539Y-13871960D01*
X16694539Y-13871960D02*
X16685015Y-13881484D01*
X16685015Y-13881484D02*
X16675491Y-13871960D01*
X16675491Y-13871960D02*
X16685015Y-13862436D01*
X16685015Y-13862436D02*
X16685015Y-13881484D01*
X16818348Y-13681484D02*
X16837396Y-13681484D01*
X16837396Y-13681484D02*
X16856444Y-13691008D01*
X16856444Y-13691008D02*
X16865968Y-13700531D01*
X16865968Y-13700531D02*
X16875491Y-13719579D01*
X16875491Y-13719579D02*
X16885015Y-13757674D01*
X16885015Y-13757674D02*
X16885015Y-13805293D01*
X16885015Y-13805293D02*
X16875491Y-13843388D01*
X16875491Y-13843388D02*
X16865968Y-13862436D01*
X16865968Y-13862436D02*
X16856444Y-13871960D01*
X16856444Y-13871960D02*
X16837396Y-13881484D01*
X16837396Y-13881484D02*
X16818348Y-13881484D01*
X16818348Y-13881484D02*
X16799301Y-13871960D01*
X16799301Y-13871960D02*
X16789777Y-13862436D01*
X16789777Y-13862436D02*
X16780253Y-13843388D01*
X16780253Y-13843388D02*
X16770729Y-13805293D01*
X16770729Y-13805293D02*
X16770729Y-13757674D01*
X16770729Y-13757674D02*
X16780253Y-13719579D01*
X16780253Y-13719579D02*
X16789777Y-13700531D01*
X16789777Y-13700531D02*
X16799301Y-13691008D01*
X16799301Y-13691008D02*
X16818348Y-13681484D01*
X16951682Y-13681484D02*
X17075491Y-13681484D01*
X17075491Y-13681484D02*
X17008825Y-13757674D01*
X17008825Y-13757674D02*
X17037396Y-13757674D01*
X17037396Y-13757674D02*
X17056444Y-13767198D01*
X17056444Y-13767198D02*
X17065968Y-13776722D01*
X17065968Y-13776722D02*
X17075491Y-13795769D01*
X17075491Y-13795769D02*
X17075491Y-13843388D01*
X17075491Y-13843388D02*
X17065968Y-13862436D01*
X17065968Y-13862436D02*
X17056444Y-13871960D01*
X17056444Y-13871960D02*
X17037396Y-13881484D01*
X17037396Y-13881484D02*
X16980253Y-13881484D01*
X16980253Y-13881484D02*
X16961206Y-13871960D01*
X16961206Y-13871960D02*
X16951682Y-13862436D01*
X17170729Y-13881484D02*
X17208825Y-13881484D01*
X17208825Y-13881484D02*
X17227872Y-13871960D01*
X17227872Y-13871960D02*
X17237396Y-13862436D01*
X17237396Y-13862436D02*
X17256444Y-13833865D01*
X17256444Y-13833865D02*
X17265968Y-13795769D01*
X17265968Y-13795769D02*
X17265968Y-13719579D01*
X17265968Y-13719579D02*
X17256444Y-13700531D01*
X17256444Y-13700531D02*
X17246920Y-13691008D01*
X17246920Y-13691008D02*
X17227872Y-13681484D01*
X17227872Y-13681484D02*
X17189777Y-13681484D01*
X17189777Y-13681484D02*
X17170729Y-13691008D01*
X17170729Y-13691008D02*
X17161206Y-13700531D01*
X17161206Y-13700531D02*
X17151682Y-13719579D01*
X17151682Y-13719579D02*
X17151682Y-13767198D01*
X17151682Y-13767198D02*
X17161206Y-13786246D01*
X17161206Y-13786246D02*
X17170729Y-13795769D01*
X17170729Y-13795769D02*
X17189777Y-13805293D01*
X17189777Y-13805293D02*
X17227872Y-13805293D01*
X17227872Y-13805293D02*
X17246920Y-13795769D01*
X17246920Y-13795769D02*
X17256444Y-13786246D01*
X17256444Y-13786246D02*
X17265968Y-13767198D01*
X17437396Y-13748150D02*
X17437396Y-13881484D01*
X17389777Y-13671960D02*
X17342158Y-13814817D01*
X17342158Y-13814817D02*
X17465968Y-13814817D01*
X17532634Y-13681484D02*
X17532634Y-13719579D01*
X17608825Y-13681484D02*
X17608825Y-13719579D01*
X17904063Y-13957674D02*
X17894539Y-13948150D01*
X17894539Y-13948150D02*
X17875491Y-13919579D01*
X17875491Y-13919579D02*
X17865968Y-13900531D01*
X17865968Y-13900531D02*
X17856444Y-13871960D01*
X17856444Y-13871960D02*
X17846920Y-13824341D01*
X17846920Y-13824341D02*
X17846920Y-13786246D01*
X17846920Y-13786246D02*
X17856444Y-13738627D01*
X17856444Y-13738627D02*
X17865968Y-13710055D01*
X17865968Y-13710055D02*
X17875491Y-13691008D01*
X17875491Y-13691008D02*
X17894539Y-13662436D01*
X17894539Y-13662436D02*
X17904063Y-13652912D01*
X18065968Y-13681484D02*
X18027872Y-13681484D01*
X18027872Y-13681484D02*
X18008825Y-13691008D01*
X18008825Y-13691008D02*
X17999301Y-13700531D01*
X17999301Y-13700531D02*
X17980253Y-13729103D01*
X17980253Y-13729103D02*
X17970730Y-13767198D01*
X17970730Y-13767198D02*
X17970730Y-13843388D01*
X17970730Y-13843388D02*
X17980253Y-13862436D01*
X17980253Y-13862436D02*
X17989777Y-13871960D01*
X17989777Y-13871960D02*
X18008825Y-13881484D01*
X18008825Y-13881484D02*
X18046920Y-13881484D01*
X18046920Y-13881484D02*
X18065968Y-13871960D01*
X18065968Y-13871960D02*
X18075491Y-13862436D01*
X18075491Y-13862436D02*
X18085015Y-13843388D01*
X18085015Y-13843388D02*
X18085015Y-13795769D01*
X18085015Y-13795769D02*
X18075491Y-13776722D01*
X18075491Y-13776722D02*
X18065968Y-13767198D01*
X18065968Y-13767198D02*
X18046920Y-13757674D01*
X18046920Y-13757674D02*
X18008825Y-13757674D01*
X18008825Y-13757674D02*
X17989777Y-13767198D01*
X17989777Y-13767198D02*
X17980253Y-13776722D01*
X17980253Y-13776722D02*
X17970730Y-13795769D01*
X18265968Y-13681484D02*
X18170730Y-13681484D01*
X18170730Y-13681484D02*
X18161206Y-13776722D01*
X18161206Y-13776722D02*
X18170730Y-13767198D01*
X18170730Y-13767198D02*
X18189777Y-13757674D01*
X18189777Y-13757674D02*
X18237396Y-13757674D01*
X18237396Y-13757674D02*
X18256444Y-13767198D01*
X18256444Y-13767198D02*
X18265968Y-13776722D01*
X18265968Y-13776722D02*
X18275491Y-13795769D01*
X18275491Y-13795769D02*
X18275491Y-13843388D01*
X18275491Y-13843388D02*
X18265968Y-13862436D01*
X18265968Y-13862436D02*
X18256444Y-13871960D01*
X18256444Y-13871960D02*
X18237396Y-13881484D01*
X18237396Y-13881484D02*
X18189777Y-13881484D01*
X18189777Y-13881484D02*
X18170730Y-13871960D01*
X18170730Y-13871960D02*
X18161206Y-13862436D01*
X18513587Y-13881484D02*
X18513587Y-13681484D01*
X18599301Y-13881484D02*
X18599301Y-13776722D01*
X18599301Y-13776722D02*
X18589777Y-13757674D01*
X18589777Y-13757674D02*
X18570730Y-13748150D01*
X18570730Y-13748150D02*
X18542158Y-13748150D01*
X18542158Y-13748150D02*
X18523111Y-13757674D01*
X18523111Y-13757674D02*
X18513587Y-13767198D01*
X18723111Y-13881484D02*
X18704063Y-13871960D01*
X18704063Y-13871960D02*
X18694539Y-13862436D01*
X18694539Y-13862436D02*
X18685015Y-13843388D01*
X18685015Y-13843388D02*
X18685015Y-13786246D01*
X18685015Y-13786246D02*
X18694539Y-13767198D01*
X18694539Y-13767198D02*
X18704063Y-13757674D01*
X18704063Y-13757674D02*
X18723111Y-13748150D01*
X18723111Y-13748150D02*
X18751682Y-13748150D01*
X18751682Y-13748150D02*
X18770730Y-13757674D01*
X18770730Y-13757674D02*
X18780253Y-13767198D01*
X18780253Y-13767198D02*
X18789777Y-13786246D01*
X18789777Y-13786246D02*
X18789777Y-13843388D01*
X18789777Y-13843388D02*
X18780253Y-13862436D01*
X18780253Y-13862436D02*
X18770730Y-13871960D01*
X18770730Y-13871960D02*
X18751682Y-13881484D01*
X18751682Y-13881484D02*
X18723111Y-13881484D01*
X18904063Y-13881484D02*
X18885015Y-13871960D01*
X18885015Y-13871960D02*
X18875492Y-13852912D01*
X18875492Y-13852912D02*
X18875492Y-13681484D01*
X19056444Y-13871960D02*
X19037396Y-13881484D01*
X19037396Y-13881484D02*
X18999301Y-13881484D01*
X18999301Y-13881484D02*
X18980253Y-13871960D01*
X18980253Y-13871960D02*
X18970730Y-13852912D01*
X18970730Y-13852912D02*
X18970730Y-13776722D01*
X18970730Y-13776722D02*
X18980253Y-13757674D01*
X18980253Y-13757674D02*
X18999301Y-13748150D01*
X18999301Y-13748150D02*
X19037396Y-13748150D01*
X19037396Y-13748150D02*
X19056444Y-13757674D01*
X19056444Y-13757674D02*
X19065968Y-13776722D01*
X19065968Y-13776722D02*
X19065968Y-13795769D01*
X19065968Y-13795769D02*
X18970730Y-13814817D01*
X19142158Y-13871960D02*
X19161206Y-13881484D01*
X19161206Y-13881484D02*
X19199301Y-13881484D01*
X19199301Y-13881484D02*
X19218349Y-13871960D01*
X19218349Y-13871960D02*
X19227873Y-13852912D01*
X19227873Y-13852912D02*
X19227873Y-13843388D01*
X19227873Y-13843388D02*
X19218349Y-13824341D01*
X19218349Y-13824341D02*
X19199301Y-13814817D01*
X19199301Y-13814817D02*
X19170730Y-13814817D01*
X19170730Y-13814817D02*
X19151682Y-13805293D01*
X19151682Y-13805293D02*
X19142158Y-13786246D01*
X19142158Y-13786246D02*
X19142158Y-13776722D01*
X19142158Y-13776722D02*
X19151682Y-13757674D01*
X19151682Y-13757674D02*
X19170730Y-13748150D01*
X19170730Y-13748150D02*
X19199301Y-13748150D01*
X19199301Y-13748150D02*
X19218349Y-13757674D01*
X19294539Y-13957674D02*
X19304063Y-13948150D01*
X19304063Y-13948150D02*
X19323111Y-13919579D01*
X19323111Y-13919579D02*
X19332634Y-13900531D01*
X19332634Y-13900531D02*
X19342158Y-13871960D01*
X19342158Y-13871960D02*
X19351682Y-13824341D01*
X19351682Y-13824341D02*
X19351682Y-13786246D01*
X19351682Y-13786246D02*
X19342158Y-13738627D01*
X19342158Y-13738627D02*
X19332634Y-13710055D01*
X19332634Y-13710055D02*
X19323111Y-13691008D01*
X19323111Y-13691008D02*
X19304063Y-13662436D01*
X19304063Y-13662436D02*
X19294539Y-13652912D01*
X14329000Y-14054000D02*
G75*
G02*
X14129000Y-14054000I-100000J0D01*
G01*
X14129000Y-14054000D02*
G75*
G02*
X14329000Y-14054000I100000J0D01*
G01*
X14570729Y-13945484D02*
X14694539Y-13945484D01*
X14694539Y-13945484D02*
X14627872Y-14021674D01*
X14627872Y-14021674D02*
X14656443Y-14021674D01*
X14656443Y-14021674D02*
X14675491Y-14031198D01*
X14675491Y-14031198D02*
X14685015Y-14040722D01*
X14685015Y-14040722D02*
X14694539Y-14059769D01*
X14694539Y-14059769D02*
X14694539Y-14107388D01*
X14694539Y-14107388D02*
X14685015Y-14126436D01*
X14685015Y-14126436D02*
X14675491Y-14135960D01*
X14675491Y-14135960D02*
X14656443Y-14145484D01*
X14656443Y-14145484D02*
X14599301Y-14145484D01*
X14599301Y-14145484D02*
X14580253Y-14135960D01*
X14580253Y-14135960D02*
X14570729Y-14126436D01*
X14780253Y-14126436D02*
X14789777Y-14135960D01*
X14789777Y-14135960D02*
X14780253Y-14145484D01*
X14780253Y-14145484D02*
X14770729Y-14135960D01*
X14770729Y-14135960D02*
X14780253Y-14126436D01*
X14780253Y-14126436D02*
X14780253Y-14145484D01*
X14865967Y-13964531D02*
X14875491Y-13955008D01*
X14875491Y-13955008D02*
X14894539Y-13945484D01*
X14894539Y-13945484D02*
X14942158Y-13945484D01*
X14942158Y-13945484D02*
X14961205Y-13955008D01*
X14961205Y-13955008D02*
X14970729Y-13964531D01*
X14970729Y-13964531D02*
X14980253Y-13983579D01*
X14980253Y-13983579D02*
X14980253Y-14002627D01*
X14980253Y-14002627D02*
X14970729Y-14031198D01*
X14970729Y-14031198D02*
X14856443Y-14145484D01*
X14856443Y-14145484D02*
X14980253Y-14145484D01*
X15104062Y-13945484D02*
X15123110Y-13945484D01*
X15123110Y-13945484D02*
X15142158Y-13955008D01*
X15142158Y-13955008D02*
X15151682Y-13964531D01*
X15151682Y-13964531D02*
X15161205Y-13983579D01*
X15161205Y-13983579D02*
X15170729Y-14021674D01*
X15170729Y-14021674D02*
X15170729Y-14069293D01*
X15170729Y-14069293D02*
X15161205Y-14107388D01*
X15161205Y-14107388D02*
X15151682Y-14126436D01*
X15151682Y-14126436D02*
X15142158Y-14135960D01*
X15142158Y-14135960D02*
X15123110Y-14145484D01*
X15123110Y-14145484D02*
X15104062Y-14145484D01*
X15104062Y-14145484D02*
X15085015Y-14135960D01*
X15085015Y-14135960D02*
X15075491Y-14126436D01*
X15075491Y-14126436D02*
X15065967Y-14107388D01*
X15065967Y-14107388D02*
X15056443Y-14069293D01*
X15056443Y-14069293D02*
X15056443Y-14021674D01*
X15056443Y-14021674D02*
X15065967Y-13983579D01*
X15065967Y-13983579D02*
X15075491Y-13964531D01*
X15075491Y-13964531D02*
X15085015Y-13955008D01*
X15085015Y-13955008D02*
X15104062Y-13945484D01*
X15294539Y-13945484D02*
X15313586Y-13945484D01*
X15313586Y-13945484D02*
X15332634Y-13955008D01*
X15332634Y-13955008D02*
X15342158Y-13964531D01*
X15342158Y-13964531D02*
X15351682Y-13983579D01*
X15351682Y-13983579D02*
X15361205Y-14021674D01*
X15361205Y-14021674D02*
X15361205Y-14069293D01*
X15361205Y-14069293D02*
X15351682Y-14107388D01*
X15351682Y-14107388D02*
X15342158Y-14126436D01*
X15342158Y-14126436D02*
X15332634Y-14135960D01*
X15332634Y-14135960D02*
X15313586Y-14145484D01*
X15313586Y-14145484D02*
X15294539Y-14145484D01*
X15294539Y-14145484D02*
X15275491Y-14135960D01*
X15275491Y-14135960D02*
X15265967Y-14126436D01*
X15265967Y-14126436D02*
X15256443Y-14107388D01*
X15256443Y-14107388D02*
X15246920Y-14069293D01*
X15246920Y-14069293D02*
X15246920Y-14021674D01*
X15246920Y-14021674D02*
X15256443Y-13983579D01*
X15256443Y-13983579D02*
X15265967Y-13964531D01*
X15265967Y-13964531D02*
X15275491Y-13955008D01*
X15275491Y-13955008D02*
X15294539Y-13945484D01*
X15446920Y-14145484D02*
X15446920Y-14012150D01*
X15446920Y-14031198D02*
X15456443Y-14021674D01*
X15456443Y-14021674D02*
X15475491Y-14012150D01*
X15475491Y-14012150D02*
X15504063Y-14012150D01*
X15504063Y-14012150D02*
X15523110Y-14021674D01*
X15523110Y-14021674D02*
X15532634Y-14040722D01*
X15532634Y-14040722D02*
X15532634Y-14145484D01*
X15532634Y-14040722D02*
X15542158Y-14021674D01*
X15542158Y-14021674D02*
X15561205Y-14012150D01*
X15561205Y-14012150D02*
X15589777Y-14012150D01*
X15589777Y-14012150D02*
X15608824Y-14021674D01*
X15608824Y-14021674D02*
X15618348Y-14040722D01*
X15618348Y-14040722D02*
X15618348Y-14145484D01*
X15713586Y-14145484D02*
X15713586Y-14012150D01*
X15713586Y-14031198D02*
X15723110Y-14021674D01*
X15723110Y-14021674D02*
X15742158Y-14012150D01*
X15742158Y-14012150D02*
X15770729Y-14012150D01*
X15770729Y-14012150D02*
X15789777Y-14021674D01*
X15789777Y-14021674D02*
X15799301Y-14040722D01*
X15799301Y-14040722D02*
X15799301Y-14145484D01*
X15799301Y-14040722D02*
X15808824Y-14021674D01*
X15808824Y-14021674D02*
X15827872Y-14012150D01*
X15827872Y-14012150D02*
X15856443Y-14012150D01*
X15856443Y-14012150D02*
X15875491Y-14021674D01*
X15875491Y-14021674D02*
X15885015Y-14040722D01*
X15885015Y-14040722D02*
X15885015Y-14145484D01*
X16275491Y-13935960D02*
X16104063Y-14193103D01*
X16532634Y-13945484D02*
X16551682Y-13945484D01*
X16551682Y-13945484D02*
X16570729Y-13955008D01*
X16570729Y-13955008D02*
X16580253Y-13964531D01*
X16580253Y-13964531D02*
X16589777Y-13983579D01*
X16589777Y-13983579D02*
X16599301Y-14021674D01*
X16599301Y-14021674D02*
X16599301Y-14069293D01*
X16599301Y-14069293D02*
X16589777Y-14107388D01*
X16589777Y-14107388D02*
X16580253Y-14126436D01*
X16580253Y-14126436D02*
X16570729Y-14135960D01*
X16570729Y-14135960D02*
X16551682Y-14145484D01*
X16551682Y-14145484D02*
X16532634Y-14145484D01*
X16532634Y-14145484D02*
X16513586Y-14135960D01*
X16513586Y-14135960D02*
X16504063Y-14126436D01*
X16504063Y-14126436D02*
X16494539Y-14107388D01*
X16494539Y-14107388D02*
X16485015Y-14069293D01*
X16485015Y-14069293D02*
X16485015Y-14021674D01*
X16485015Y-14021674D02*
X16494539Y-13983579D01*
X16494539Y-13983579D02*
X16504063Y-13964531D01*
X16504063Y-13964531D02*
X16513586Y-13955008D01*
X16513586Y-13955008D02*
X16532634Y-13945484D01*
X16685015Y-14126436D02*
X16694539Y-14135960D01*
X16694539Y-14135960D02*
X16685015Y-14145484D01*
X16685015Y-14145484D02*
X16675491Y-14135960D01*
X16675491Y-14135960D02*
X16685015Y-14126436D01*
X16685015Y-14126436D02*
X16685015Y-14145484D01*
X16885015Y-14145484D02*
X16770729Y-14145484D01*
X16827872Y-14145484D02*
X16827872Y-13945484D01*
X16827872Y-13945484D02*
X16808825Y-13974055D01*
X16808825Y-13974055D02*
X16789777Y-13993103D01*
X16789777Y-13993103D02*
X16770729Y-14002627D01*
X16961206Y-13964531D02*
X16970729Y-13955008D01*
X16970729Y-13955008D02*
X16989777Y-13945484D01*
X16989777Y-13945484D02*
X17037396Y-13945484D01*
X17037396Y-13945484D02*
X17056444Y-13955008D01*
X17056444Y-13955008D02*
X17065968Y-13964531D01*
X17065968Y-13964531D02*
X17075491Y-13983579D01*
X17075491Y-13983579D02*
X17075491Y-14002627D01*
X17075491Y-14002627D02*
X17065968Y-14031198D01*
X17065968Y-14031198D02*
X16951682Y-14145484D01*
X16951682Y-14145484D02*
X17075491Y-14145484D01*
X17246920Y-13945484D02*
X17208825Y-13945484D01*
X17208825Y-13945484D02*
X17189777Y-13955008D01*
X17189777Y-13955008D02*
X17180253Y-13964531D01*
X17180253Y-13964531D02*
X17161206Y-13993103D01*
X17161206Y-13993103D02*
X17151682Y-14031198D01*
X17151682Y-14031198D02*
X17151682Y-14107388D01*
X17151682Y-14107388D02*
X17161206Y-14126436D01*
X17161206Y-14126436D02*
X17170729Y-14135960D01*
X17170729Y-14135960D02*
X17189777Y-14145484D01*
X17189777Y-14145484D02*
X17227872Y-14145484D01*
X17227872Y-14145484D02*
X17246920Y-14135960D01*
X17246920Y-14135960D02*
X17256444Y-14126436D01*
X17256444Y-14126436D02*
X17265968Y-14107388D01*
X17265968Y-14107388D02*
X17265968Y-14059769D01*
X17265968Y-14059769D02*
X17256444Y-14040722D01*
X17256444Y-14040722D02*
X17246920Y-14031198D01*
X17246920Y-14031198D02*
X17227872Y-14021674D01*
X17227872Y-14021674D02*
X17189777Y-14021674D01*
X17189777Y-14021674D02*
X17170729Y-14031198D01*
X17170729Y-14031198D02*
X17161206Y-14040722D01*
X17161206Y-14040722D02*
X17151682Y-14059769D01*
X17389777Y-13945484D02*
X17408825Y-13945484D01*
X17408825Y-13945484D02*
X17427872Y-13955008D01*
X17427872Y-13955008D02*
X17437396Y-13964531D01*
X17437396Y-13964531D02*
X17446920Y-13983579D01*
X17446920Y-13983579D02*
X17456444Y-14021674D01*
X17456444Y-14021674D02*
X17456444Y-14069293D01*
X17456444Y-14069293D02*
X17446920Y-14107388D01*
X17446920Y-14107388D02*
X17437396Y-14126436D01*
X17437396Y-14126436D02*
X17427872Y-14135960D01*
X17427872Y-14135960D02*
X17408825Y-14145484D01*
X17408825Y-14145484D02*
X17389777Y-14145484D01*
X17389777Y-14145484D02*
X17370729Y-14135960D01*
X17370729Y-14135960D02*
X17361206Y-14126436D01*
X17361206Y-14126436D02*
X17351682Y-14107388D01*
X17351682Y-14107388D02*
X17342158Y-14069293D01*
X17342158Y-14069293D02*
X17342158Y-14021674D01*
X17342158Y-14021674D02*
X17351682Y-13983579D01*
X17351682Y-13983579D02*
X17361206Y-13964531D01*
X17361206Y-13964531D02*
X17370729Y-13955008D01*
X17370729Y-13955008D02*
X17389777Y-13945484D01*
X17532634Y-13945484D02*
X17532634Y-13983579D01*
X17608825Y-13945484D02*
X17608825Y-13983579D01*
X17904063Y-14221674D02*
X17894539Y-14212150D01*
X17894539Y-14212150D02*
X17875491Y-14183579D01*
X17875491Y-14183579D02*
X17865968Y-14164531D01*
X17865968Y-14164531D02*
X17856444Y-14135960D01*
X17856444Y-14135960D02*
X17846920Y-14088341D01*
X17846920Y-14088341D02*
X17846920Y-14050246D01*
X17846920Y-14050246D02*
X17856444Y-14002627D01*
X17856444Y-14002627D02*
X17865968Y-13974055D01*
X17865968Y-13974055D02*
X17875491Y-13955008D01*
X17875491Y-13955008D02*
X17894539Y-13926436D01*
X17894539Y-13926436D02*
X17904063Y-13916912D01*
X18065968Y-14012150D02*
X18065968Y-14145484D01*
X18018349Y-13935960D02*
X17970730Y-14078817D01*
X17970730Y-14078817D02*
X18094539Y-14078817D01*
X18323111Y-14145484D02*
X18323111Y-13945484D01*
X18408825Y-14145484D02*
X18408825Y-14040722D01*
X18408825Y-14040722D02*
X18399301Y-14021674D01*
X18399301Y-14021674D02*
X18380253Y-14012150D01*
X18380253Y-14012150D02*
X18351682Y-14012150D01*
X18351682Y-14012150D02*
X18332634Y-14021674D01*
X18332634Y-14021674D02*
X18323111Y-14031198D01*
X18532634Y-14145484D02*
X18513587Y-14135960D01*
X18513587Y-14135960D02*
X18504063Y-14126436D01*
X18504063Y-14126436D02*
X18494539Y-14107388D01*
X18494539Y-14107388D02*
X18494539Y-14050246D01*
X18494539Y-14050246D02*
X18504063Y-14031198D01*
X18504063Y-14031198D02*
X18513587Y-14021674D01*
X18513587Y-14021674D02*
X18532634Y-14012150D01*
X18532634Y-14012150D02*
X18561206Y-14012150D01*
X18561206Y-14012150D02*
X18580253Y-14021674D01*
X18580253Y-14021674D02*
X18589777Y-14031198D01*
X18589777Y-14031198D02*
X18599301Y-14050246D01*
X18599301Y-14050246D02*
X18599301Y-14107388D01*
X18599301Y-14107388D02*
X18589777Y-14126436D01*
X18589777Y-14126436D02*
X18580253Y-14135960D01*
X18580253Y-14135960D02*
X18561206Y-14145484D01*
X18561206Y-14145484D02*
X18532634Y-14145484D01*
X18713587Y-14145484D02*
X18694539Y-14135960D01*
X18694539Y-14135960D02*
X18685015Y-14116912D01*
X18685015Y-14116912D02*
X18685015Y-13945484D01*
X18865968Y-14135960D02*
X18846920Y-14145484D01*
X18846920Y-14145484D02*
X18808825Y-14145484D01*
X18808825Y-14145484D02*
X18789777Y-14135960D01*
X18789777Y-14135960D02*
X18780253Y-14116912D01*
X18780253Y-14116912D02*
X18780253Y-14040722D01*
X18780253Y-14040722D02*
X18789777Y-14021674D01*
X18789777Y-14021674D02*
X18808825Y-14012150D01*
X18808825Y-14012150D02*
X18846920Y-14012150D01*
X18846920Y-14012150D02*
X18865968Y-14021674D01*
X18865968Y-14021674D02*
X18875492Y-14040722D01*
X18875492Y-14040722D02*
X18875492Y-14059769D01*
X18875492Y-14059769D02*
X18780253Y-14078817D01*
X18951682Y-14135960D02*
X18970730Y-14145484D01*
X18970730Y-14145484D02*
X19008825Y-14145484D01*
X19008825Y-14145484D02*
X19027873Y-14135960D01*
X19027873Y-14135960D02*
X19037396Y-14116912D01*
X19037396Y-14116912D02*
X19037396Y-14107388D01*
X19037396Y-14107388D02*
X19027873Y-14088341D01*
X19027873Y-14088341D02*
X19008825Y-14078817D01*
X19008825Y-14078817D02*
X18980253Y-14078817D01*
X18980253Y-14078817D02*
X18961206Y-14069293D01*
X18961206Y-14069293D02*
X18951682Y-14050246D01*
X18951682Y-14050246D02*
X18951682Y-14040722D01*
X18951682Y-14040722D02*
X18961206Y-14021674D01*
X18961206Y-14021674D02*
X18980253Y-14012150D01*
X18980253Y-14012150D02*
X19008825Y-14012150D01*
X19008825Y-14012150D02*
X19027873Y-14021674D01*
X19104063Y-14221674D02*
X19113587Y-14212150D01*
X19113587Y-14212150D02*
X19132634Y-14183579D01*
X19132634Y-14183579D02*
X19142158Y-14164531D01*
X19142158Y-14164531D02*
X19151682Y-14135960D01*
X19151682Y-14135960D02*
X19161206Y-14088341D01*
X19161206Y-14088341D02*
X19161206Y-14050246D01*
X19161206Y-14050246D02*
X19151682Y-14002627D01*
X19151682Y-14002627D02*
X19142158Y-13974055D01*
X19142158Y-13974055D02*
X19132634Y-13955008D01*
X19132634Y-13955008D02*
X19113587Y-13926436D01*
X19113587Y-13926436D02*
X19104063Y-13916912D01*
M02*
