M48
; DRILL file {KiCad 9.0.6} date 2025-12-16T16:24:00-0300
; FORMAT={-:-/ absolute / metric / decimal}
; #@! TF.CreationDate,2025-12-16T16:24:00-03:00
; #@! TF.GenerationSoftware,Kicad,Pcbnew,9.0.6
; #@! TF.FileFunction,Plated,1,2,PTH
FMAT,2
METRIC
; #@! TA.AperFunction,Plated,PTH,ComponentDrill
T1C1.000
; #@! TA.AperFunction,Plated,PTH,ComponentDrill
T2C3.200
%
G90
G05
T1
X155.241Y-77.025
X155.241Y-79.565
X155.241Y-82.105
X155.241Y-84.645
X155.241Y-87.185
X155.241Y-89.725
X155.241Y-92.265
X155.241Y-94.805
X155.241Y-97.345
X155.241Y-99.885
X155.241Y-102.425
X155.241Y-104.965
X155.241Y-107.505
X155.241Y-110.045
X164.456Y-77.025
X164.456Y-79.565
X164.456Y-82.105
X164.456Y-84.645
X164.456Y-87.185
X164.456Y-89.725
X164.456Y-92.265
X164.456Y-94.805
X164.456Y-97.345
X164.456Y-99.885
X164.456Y-102.425
X164.456Y-104.965
X164.456Y-107.505
X164.456Y-110.045
X167.39Y-117.86
X167.39Y-120.4
X167.39Y-122.94
X172.08Y-117.86
X172.08Y-120.4
X172.08Y-122.94
X176.68Y-117.86
X176.68Y-120.4
X176.68Y-122.94
X180.37Y-77.025
X180.37Y-79.565
X180.37Y-82.105
X180.37Y-84.645
X180.37Y-87.185
X180.37Y-89.725
X180.37Y-92.265
X180.37Y-94.805
X180.37Y-97.345
X180.37Y-99.885
X180.37Y-102.425
X180.37Y-104.965
X180.37Y-107.505
X180.37Y-110.045
X189.721Y-77.025
X189.721Y-79.565
X189.721Y-82.105
X189.721Y-84.645
X189.721Y-87.185
X189.721Y-89.725
X189.721Y-92.265
X189.721Y-94.805
X189.721Y-97.345
X189.721Y-99.885
X189.721Y-102.425
X189.721Y-104.965
X189.721Y-107.505
X189.721Y-110.045
T2
X150.21Y-68.71
X150.21Y-124.65
X194.66Y-68.71
X194.66Y-124.65
M30
