%TF.GenerationSoftware,KiCad,Pcbnew,9.0.6*%
%TF.CreationDate,2025-12-16T16:23:58-03:00*%
%TF.ProjectId,shield teensy_v3,73686965-6c64-4207-9465-656e73795f76,rev?*%
%TF.SameCoordinates,Original*%
%TF.FileFunction,Legend,Top*%
%TF.FilePolarity,Positive*%
%FSLAX46Y46*%
G04 Gerber Fmt 4.6, Leading zero omitted, Abs format (unit mm)*
G04 Created by KiCad (PCBNEW 9.0.6) date 2025-12-16 16:23:58*
%MOMM*%
%LPD*%
G01*
G04 APERTURE LIST*
%ADD10C,0.150000*%
%ADD11C,0.120000*%
G04 APERTURE END LIST*
D10*
X177030237Y-107970533D02*
X176458809Y-107970533D01*
X176744523Y-107970533D02*
X176744523Y-106970533D01*
X176744523Y-106970533D02*
X176649285Y-107113390D01*
X176649285Y-107113390D02*
X176554047Y-107208628D01*
X176554047Y-107208628D02*
X176458809Y-107256247D01*
X177887380Y-107303866D02*
X177887380Y-107970533D01*
X177649285Y-106922914D02*
X177411190Y-107637199D01*
X177411190Y-107637199D02*
X178030237Y-107637199D01*
X185614524Y-89490057D02*
X185662143Y-89442438D01*
X185662143Y-89442438D02*
X185757381Y-89394819D01*
X185757381Y-89394819D02*
X185995476Y-89394819D01*
X185995476Y-89394819D02*
X186090714Y-89442438D01*
X186090714Y-89442438D02*
X186138333Y-89490057D01*
X186138333Y-89490057D02*
X186185952Y-89585295D01*
X186185952Y-89585295D02*
X186185952Y-89680533D01*
X186185952Y-89680533D02*
X186138333Y-89823390D01*
X186138333Y-89823390D02*
X185566905Y-90394819D01*
X185566905Y-90394819D02*
X186185952Y-90394819D01*
X187138333Y-90394819D02*
X186566905Y-90394819D01*
X186852619Y-90394819D02*
X186852619Y-89394819D01*
X186852619Y-89394819D02*
X186757381Y-89537676D01*
X186757381Y-89537676D02*
X186662143Y-89632914D01*
X186662143Y-89632914D02*
X186566905Y-89680533D01*
X185614524Y-86915057D02*
X185662143Y-86867438D01*
X185662143Y-86867438D02*
X185757381Y-86819819D01*
X185757381Y-86819819D02*
X185995476Y-86819819D01*
X185995476Y-86819819D02*
X186090714Y-86867438D01*
X186090714Y-86867438D02*
X186138333Y-86915057D01*
X186138333Y-86915057D02*
X186185952Y-87010295D01*
X186185952Y-87010295D02*
X186185952Y-87105533D01*
X186185952Y-87105533D02*
X186138333Y-87248390D01*
X186138333Y-87248390D02*
X185566905Y-87819819D01*
X185566905Y-87819819D02*
X186185952Y-87819819D01*
X186566905Y-86915057D02*
X186614524Y-86867438D01*
X186614524Y-86867438D02*
X186709762Y-86819819D01*
X186709762Y-86819819D02*
X186947857Y-86819819D01*
X186947857Y-86819819D02*
X187043095Y-86867438D01*
X187043095Y-86867438D02*
X187090714Y-86915057D01*
X187090714Y-86915057D02*
X187138333Y-87010295D01*
X187138333Y-87010295D02*
X187138333Y-87105533D01*
X187138333Y-87105533D02*
X187090714Y-87248390D01*
X187090714Y-87248390D02*
X186519286Y-87819819D01*
X186519286Y-87819819D02*
X187138333Y-87819819D01*
X183075715Y-82523866D02*
X183837620Y-82523866D01*
X183456667Y-82904819D02*
X183456667Y-82142914D01*
X184218572Y-81904819D02*
X184837619Y-81904819D01*
X184837619Y-81904819D02*
X184504286Y-82285771D01*
X184504286Y-82285771D02*
X184647143Y-82285771D01*
X184647143Y-82285771D02*
X184742381Y-82333390D01*
X184742381Y-82333390D02*
X184790000Y-82381009D01*
X184790000Y-82381009D02*
X184837619Y-82476247D01*
X184837619Y-82476247D02*
X184837619Y-82714342D01*
X184837619Y-82714342D02*
X184790000Y-82809580D01*
X184790000Y-82809580D02*
X184742381Y-82857200D01*
X184742381Y-82857200D02*
X184647143Y-82904819D01*
X184647143Y-82904819D02*
X184361429Y-82904819D01*
X184361429Y-82904819D02*
X184266191Y-82857200D01*
X184266191Y-82857200D02*
X184218572Y-82809580D01*
X185266191Y-82809580D02*
X185313810Y-82857200D01*
X185313810Y-82857200D02*
X185266191Y-82904819D01*
X185266191Y-82904819D02*
X185218572Y-82857200D01*
X185218572Y-82857200D02*
X185266191Y-82809580D01*
X185266191Y-82809580D02*
X185266191Y-82904819D01*
X185647143Y-81904819D02*
X186266190Y-81904819D01*
X186266190Y-81904819D02*
X185932857Y-82285771D01*
X185932857Y-82285771D02*
X186075714Y-82285771D01*
X186075714Y-82285771D02*
X186170952Y-82333390D01*
X186170952Y-82333390D02*
X186218571Y-82381009D01*
X186218571Y-82381009D02*
X186266190Y-82476247D01*
X186266190Y-82476247D02*
X186266190Y-82714342D01*
X186266190Y-82714342D02*
X186218571Y-82809580D01*
X186218571Y-82809580D02*
X186170952Y-82857200D01*
X186170952Y-82857200D02*
X186075714Y-82904819D01*
X186075714Y-82904819D02*
X185790000Y-82904819D01*
X185790000Y-82904819D02*
X185694762Y-82857200D01*
X185694762Y-82857200D02*
X185647143Y-82809580D01*
X186551905Y-81904819D02*
X186885238Y-82904819D01*
X186885238Y-82904819D02*
X187218571Y-81904819D01*
X160462381Y-78844819D02*
X160557619Y-78844819D01*
X160557619Y-78844819D02*
X160652857Y-78892438D01*
X160652857Y-78892438D02*
X160700476Y-78940057D01*
X160700476Y-78940057D02*
X160748095Y-79035295D01*
X160748095Y-79035295D02*
X160795714Y-79225771D01*
X160795714Y-79225771D02*
X160795714Y-79463866D01*
X160795714Y-79463866D02*
X160748095Y-79654342D01*
X160748095Y-79654342D02*
X160700476Y-79749580D01*
X160700476Y-79749580D02*
X160652857Y-79797200D01*
X160652857Y-79797200D02*
X160557619Y-79844819D01*
X160557619Y-79844819D02*
X160462381Y-79844819D01*
X160462381Y-79844819D02*
X160367143Y-79797200D01*
X160367143Y-79797200D02*
X160319524Y-79749580D01*
X160319524Y-79749580D02*
X160271905Y-79654342D01*
X160271905Y-79654342D02*
X160224286Y-79463866D01*
X160224286Y-79463866D02*
X160224286Y-79225771D01*
X160224286Y-79225771D02*
X160271905Y-79035295D01*
X160271905Y-79035295D02*
X160319524Y-78940057D01*
X160319524Y-78940057D02*
X160367143Y-78892438D01*
X160367143Y-78892438D02*
X160462381Y-78844819D01*
X186185952Y-105419819D02*
X185614524Y-105419819D01*
X185900238Y-105419819D02*
X185900238Y-104419819D01*
X185900238Y-104419819D02*
X185805000Y-104562676D01*
X185805000Y-104562676D02*
X185709762Y-104657914D01*
X185709762Y-104657914D02*
X185614524Y-104705533D01*
X187090714Y-104419819D02*
X186614524Y-104419819D01*
X186614524Y-104419819D02*
X186566905Y-104896009D01*
X186566905Y-104896009D02*
X186614524Y-104848390D01*
X186614524Y-104848390D02*
X186709762Y-104800771D01*
X186709762Y-104800771D02*
X186947857Y-104800771D01*
X186947857Y-104800771D02*
X187043095Y-104848390D01*
X187043095Y-104848390D02*
X187090714Y-104896009D01*
X187090714Y-104896009D02*
X187138333Y-104991247D01*
X187138333Y-104991247D02*
X187138333Y-105229342D01*
X187138333Y-105229342D02*
X187090714Y-105324580D01*
X187090714Y-105324580D02*
X187043095Y-105372200D01*
X187043095Y-105372200D02*
X186947857Y-105419819D01*
X186947857Y-105419819D02*
X186709762Y-105419819D01*
X186709762Y-105419819D02*
X186614524Y-105372200D01*
X186614524Y-105372200D02*
X186566905Y-105324580D01*
X177919999Y-79478152D02*
X177824761Y-79430533D01*
X177824761Y-79430533D02*
X177681904Y-79430533D01*
X177681904Y-79430533D02*
X177539047Y-79478152D01*
X177539047Y-79478152D02*
X177443809Y-79573390D01*
X177443809Y-79573390D02*
X177396190Y-79668628D01*
X177396190Y-79668628D02*
X177348571Y-79859104D01*
X177348571Y-79859104D02*
X177348571Y-80001961D01*
X177348571Y-80001961D02*
X177396190Y-80192437D01*
X177396190Y-80192437D02*
X177443809Y-80287675D01*
X177443809Y-80287675D02*
X177539047Y-80382914D01*
X177539047Y-80382914D02*
X177681904Y-80430533D01*
X177681904Y-80430533D02*
X177777142Y-80430533D01*
X177777142Y-80430533D02*
X177919999Y-80382914D01*
X177919999Y-80382914D02*
X177967618Y-80335294D01*
X177967618Y-80335294D02*
X177967618Y-80001961D01*
X177967618Y-80001961D02*
X177777142Y-80001961D01*
X167529523Y-105439819D02*
X166958095Y-105439819D01*
X167243809Y-105439819D02*
X167243809Y-104439819D01*
X167243809Y-104439819D02*
X167148571Y-104582676D01*
X167148571Y-104582676D02*
X167053333Y-104677914D01*
X167053333Y-104677914D02*
X166958095Y-104725533D01*
X168148571Y-104439819D02*
X168243809Y-104439819D01*
X168243809Y-104439819D02*
X168339047Y-104487438D01*
X168339047Y-104487438D02*
X168386666Y-104535057D01*
X168386666Y-104535057D02*
X168434285Y-104630295D01*
X168434285Y-104630295D02*
X168481904Y-104820771D01*
X168481904Y-104820771D02*
X168481904Y-105058866D01*
X168481904Y-105058866D02*
X168434285Y-105249342D01*
X168434285Y-105249342D02*
X168386666Y-105344580D01*
X168386666Y-105344580D02*
X168339047Y-105392200D01*
X168339047Y-105392200D02*
X168243809Y-105439819D01*
X168243809Y-105439819D02*
X168148571Y-105439819D01*
X168148571Y-105439819D02*
X168053333Y-105392200D01*
X168053333Y-105392200D02*
X168005714Y-105344580D01*
X168005714Y-105344580D02*
X167958095Y-105249342D01*
X167958095Y-105249342D02*
X167910476Y-105058866D01*
X167910476Y-105058866D02*
X167910476Y-104820771D01*
X167910476Y-104820771D02*
X167958095Y-104630295D01*
X167958095Y-104630295D02*
X168005714Y-104535057D01*
X168005714Y-104535057D02*
X168053333Y-104487438D01*
X168053333Y-104487438D02*
X168148571Y-104439819D01*
X167144285Y-69197200D02*
X167287142Y-69244819D01*
X167287142Y-69244819D02*
X167525237Y-69244819D01*
X167525237Y-69244819D02*
X167620475Y-69197200D01*
X167620475Y-69197200D02*
X167668094Y-69149580D01*
X167668094Y-69149580D02*
X167715713Y-69054342D01*
X167715713Y-69054342D02*
X167715713Y-68959104D01*
X167715713Y-68959104D02*
X167668094Y-68863866D01*
X167668094Y-68863866D02*
X167620475Y-68816247D01*
X167620475Y-68816247D02*
X167525237Y-68768628D01*
X167525237Y-68768628D02*
X167334761Y-68721009D01*
X167334761Y-68721009D02*
X167239523Y-68673390D01*
X167239523Y-68673390D02*
X167191904Y-68625771D01*
X167191904Y-68625771D02*
X167144285Y-68530533D01*
X167144285Y-68530533D02*
X167144285Y-68435295D01*
X167144285Y-68435295D02*
X167191904Y-68340057D01*
X167191904Y-68340057D02*
X167239523Y-68292438D01*
X167239523Y-68292438D02*
X167334761Y-68244819D01*
X167334761Y-68244819D02*
X167572856Y-68244819D01*
X167572856Y-68244819D02*
X167715713Y-68292438D01*
X168144285Y-69244819D02*
X168144285Y-68244819D01*
X168144285Y-68721009D02*
X168715713Y-68721009D01*
X168715713Y-69244819D02*
X168715713Y-68244819D01*
X169191904Y-69244819D02*
X169191904Y-68244819D01*
X169668094Y-68721009D02*
X170001427Y-68721009D01*
X170144284Y-69244819D02*
X169668094Y-69244819D01*
X169668094Y-69244819D02*
X169668094Y-68244819D01*
X169668094Y-68244819D02*
X170144284Y-68244819D01*
X171049046Y-69244819D02*
X170572856Y-69244819D01*
X170572856Y-69244819D02*
X170572856Y-68244819D01*
X171382380Y-69244819D02*
X171382380Y-68244819D01*
X171382380Y-68244819D02*
X171620475Y-68244819D01*
X171620475Y-68244819D02*
X171763332Y-68292438D01*
X171763332Y-68292438D02*
X171858570Y-68387676D01*
X171858570Y-68387676D02*
X171906189Y-68482914D01*
X171906189Y-68482914D02*
X171953808Y-68673390D01*
X171953808Y-68673390D02*
X171953808Y-68816247D01*
X171953808Y-68816247D02*
X171906189Y-69006723D01*
X171906189Y-69006723D02*
X171858570Y-69101961D01*
X171858570Y-69101961D02*
X171763332Y-69197200D01*
X171763332Y-69197200D02*
X171620475Y-69244819D01*
X171620475Y-69244819D02*
X171382380Y-69244819D01*
X173001428Y-68244819D02*
X173572856Y-68244819D01*
X173287142Y-69244819D02*
X173287142Y-68244819D01*
X173906190Y-68721009D02*
X174239523Y-68721009D01*
X174382380Y-69244819D02*
X173906190Y-69244819D01*
X173906190Y-69244819D02*
X173906190Y-68244819D01*
X173906190Y-68244819D02*
X174382380Y-68244819D01*
X174810952Y-68721009D02*
X175144285Y-68721009D01*
X175287142Y-69244819D02*
X174810952Y-69244819D01*
X174810952Y-69244819D02*
X174810952Y-68244819D01*
X174810952Y-68244819D02*
X175287142Y-68244819D01*
X175715714Y-69244819D02*
X175715714Y-68244819D01*
X175715714Y-68244819D02*
X176287142Y-69244819D01*
X176287142Y-69244819D02*
X176287142Y-68244819D01*
X176715714Y-69197200D02*
X176858571Y-69244819D01*
X176858571Y-69244819D02*
X177096666Y-69244819D01*
X177096666Y-69244819D02*
X177191904Y-69197200D01*
X177191904Y-69197200D02*
X177239523Y-69149580D01*
X177239523Y-69149580D02*
X177287142Y-69054342D01*
X177287142Y-69054342D02*
X177287142Y-68959104D01*
X177287142Y-68959104D02*
X177239523Y-68863866D01*
X177239523Y-68863866D02*
X177191904Y-68816247D01*
X177191904Y-68816247D02*
X177096666Y-68768628D01*
X177096666Y-68768628D02*
X176906190Y-68721009D01*
X176906190Y-68721009D02*
X176810952Y-68673390D01*
X176810952Y-68673390D02*
X176763333Y-68625771D01*
X176763333Y-68625771D02*
X176715714Y-68530533D01*
X176715714Y-68530533D02*
X176715714Y-68435295D01*
X176715714Y-68435295D02*
X176763333Y-68340057D01*
X176763333Y-68340057D02*
X176810952Y-68292438D01*
X176810952Y-68292438D02*
X176906190Y-68244819D01*
X176906190Y-68244819D02*
X177144285Y-68244819D01*
X177144285Y-68244819D02*
X177287142Y-68292438D01*
X177906190Y-68768628D02*
X177906190Y-69244819D01*
X177572857Y-68244819D02*
X177906190Y-68768628D01*
X177906190Y-68768628D02*
X178239523Y-68244819D01*
X179191905Y-68244819D02*
X179525238Y-69244819D01*
X179525238Y-69244819D02*
X179858571Y-68244819D01*
X180096667Y-68244819D02*
X180715714Y-68244819D01*
X180715714Y-68244819D02*
X180382381Y-68625771D01*
X180382381Y-68625771D02*
X180525238Y-68625771D01*
X180525238Y-68625771D02*
X180620476Y-68673390D01*
X180620476Y-68673390D02*
X180668095Y-68721009D01*
X180668095Y-68721009D02*
X180715714Y-68816247D01*
X180715714Y-68816247D02*
X180715714Y-69054342D01*
X180715714Y-69054342D02*
X180668095Y-69149580D01*
X180668095Y-69149580D02*
X180620476Y-69197200D01*
X180620476Y-69197200D02*
X180525238Y-69244819D01*
X180525238Y-69244819D02*
X180239524Y-69244819D01*
X180239524Y-69244819D02*
X180144286Y-69197200D01*
X180144286Y-69197200D02*
X180096667Y-69149580D01*
X167434285Y-93914819D02*
X167243809Y-93914819D01*
X167243809Y-93914819D02*
X167148571Y-93962438D01*
X167148571Y-93962438D02*
X167100952Y-94010057D01*
X167100952Y-94010057D02*
X167005714Y-94152914D01*
X167005714Y-94152914D02*
X166958095Y-94343390D01*
X166958095Y-94343390D02*
X166958095Y-94724342D01*
X166958095Y-94724342D02*
X167005714Y-94819580D01*
X167005714Y-94819580D02*
X167053333Y-94867200D01*
X167053333Y-94867200D02*
X167148571Y-94914819D01*
X167148571Y-94914819D02*
X167339047Y-94914819D01*
X167339047Y-94914819D02*
X167434285Y-94867200D01*
X167434285Y-94867200D02*
X167481904Y-94819580D01*
X167481904Y-94819580D02*
X167529523Y-94724342D01*
X167529523Y-94724342D02*
X167529523Y-94486247D01*
X167529523Y-94486247D02*
X167481904Y-94391009D01*
X167481904Y-94391009D02*
X167434285Y-94343390D01*
X167434285Y-94343390D02*
X167339047Y-94295771D01*
X167339047Y-94295771D02*
X167148571Y-94295771D01*
X167148571Y-94295771D02*
X167053333Y-94343390D01*
X167053333Y-94343390D02*
X167005714Y-94391009D01*
X167005714Y-94391009D02*
X166958095Y-94486247D01*
X184504286Y-77473866D02*
X185266191Y-77473866D01*
X184885238Y-77854819D02*
X184885238Y-77092914D01*
X186218571Y-76854819D02*
X185742381Y-76854819D01*
X185742381Y-76854819D02*
X185694762Y-77331009D01*
X185694762Y-77331009D02*
X185742381Y-77283390D01*
X185742381Y-77283390D02*
X185837619Y-77235771D01*
X185837619Y-77235771D02*
X186075714Y-77235771D01*
X186075714Y-77235771D02*
X186170952Y-77283390D01*
X186170952Y-77283390D02*
X186218571Y-77331009D01*
X186218571Y-77331009D02*
X186266190Y-77426247D01*
X186266190Y-77426247D02*
X186266190Y-77664342D01*
X186266190Y-77664342D02*
X186218571Y-77759580D01*
X186218571Y-77759580D02*
X186170952Y-77807200D01*
X186170952Y-77807200D02*
X186075714Y-77854819D01*
X186075714Y-77854819D02*
X185837619Y-77854819D01*
X185837619Y-77854819D02*
X185742381Y-77807200D01*
X185742381Y-77807200D02*
X185694762Y-77759580D01*
X186551905Y-76854819D02*
X186885238Y-77854819D01*
X186885238Y-77854819D02*
X187218571Y-76854819D01*
X166910476Y-86489819D02*
X167529523Y-86489819D01*
X167529523Y-86489819D02*
X167196190Y-86870771D01*
X167196190Y-86870771D02*
X167339047Y-86870771D01*
X167339047Y-86870771D02*
X167434285Y-86918390D01*
X167434285Y-86918390D02*
X167481904Y-86966009D01*
X167481904Y-86966009D02*
X167529523Y-87061247D01*
X167529523Y-87061247D02*
X167529523Y-87299342D01*
X167529523Y-87299342D02*
X167481904Y-87394580D01*
X167481904Y-87394580D02*
X167434285Y-87442200D01*
X167434285Y-87442200D02*
X167339047Y-87489819D01*
X167339047Y-87489819D02*
X167053333Y-87489819D01*
X167053333Y-87489819D02*
X166958095Y-87442200D01*
X166958095Y-87442200D02*
X166910476Y-87394580D01*
X186185952Y-107969819D02*
X185614524Y-107969819D01*
X185900238Y-107969819D02*
X185900238Y-106969819D01*
X185900238Y-106969819D02*
X185805000Y-107112676D01*
X185805000Y-107112676D02*
X185709762Y-107207914D01*
X185709762Y-107207914D02*
X185614524Y-107255533D01*
X187043095Y-107303152D02*
X187043095Y-107969819D01*
X186805000Y-106922200D02*
X186566905Y-107636485D01*
X186566905Y-107636485D02*
X187185952Y-107636485D01*
X175090000Y-126063866D02*
X175851905Y-126063866D01*
X175470952Y-126444819D02*
X175470952Y-125682914D01*
X176232857Y-125444819D02*
X176851904Y-125444819D01*
X176851904Y-125444819D02*
X176518571Y-125825771D01*
X176518571Y-125825771D02*
X176661428Y-125825771D01*
X176661428Y-125825771D02*
X176756666Y-125873390D01*
X176756666Y-125873390D02*
X176804285Y-125921009D01*
X176804285Y-125921009D02*
X176851904Y-126016247D01*
X176851904Y-126016247D02*
X176851904Y-126254342D01*
X176851904Y-126254342D02*
X176804285Y-126349580D01*
X176804285Y-126349580D02*
X176756666Y-126397200D01*
X176756666Y-126397200D02*
X176661428Y-126444819D01*
X176661428Y-126444819D02*
X176375714Y-126444819D01*
X176375714Y-126444819D02*
X176280476Y-126397200D01*
X176280476Y-126397200D02*
X176232857Y-126349580D01*
X177280476Y-126349580D02*
X177328095Y-126397200D01*
X177328095Y-126397200D02*
X177280476Y-126444819D01*
X177280476Y-126444819D02*
X177232857Y-126397200D01*
X177232857Y-126397200D02*
X177280476Y-126349580D01*
X177280476Y-126349580D02*
X177280476Y-126444819D01*
X177661428Y-125444819D02*
X178280475Y-125444819D01*
X178280475Y-125444819D02*
X177947142Y-125825771D01*
X177947142Y-125825771D02*
X178089999Y-125825771D01*
X178089999Y-125825771D02*
X178185237Y-125873390D01*
X178185237Y-125873390D02*
X178232856Y-125921009D01*
X178232856Y-125921009D02*
X178280475Y-126016247D01*
X178280475Y-126016247D02*
X178280475Y-126254342D01*
X178280475Y-126254342D02*
X178232856Y-126349580D01*
X178232856Y-126349580D02*
X178185237Y-126397200D01*
X178185237Y-126397200D02*
X178089999Y-126444819D01*
X178089999Y-126444819D02*
X177804285Y-126444819D01*
X177804285Y-126444819D02*
X177709047Y-126397200D01*
X177709047Y-126397200D02*
X177661428Y-126349580D01*
X178566190Y-125444819D02*
X178899523Y-126444819D01*
X178899523Y-126444819D02*
X179232856Y-125444819D01*
X167529523Y-82439819D02*
X166958095Y-82439819D01*
X167243809Y-82439819D02*
X167243809Y-81439819D01*
X167243809Y-81439819D02*
X167148571Y-81582676D01*
X167148571Y-81582676D02*
X167053333Y-81677914D01*
X167053333Y-81677914D02*
X166958095Y-81725533D01*
X177030237Y-110584819D02*
X176458809Y-110584819D01*
X176744523Y-110584819D02*
X176744523Y-109584819D01*
X176744523Y-109584819D02*
X176649285Y-109727676D01*
X176649285Y-109727676D02*
X176554047Y-109822914D01*
X176554047Y-109822914D02*
X176458809Y-109870533D01*
X177363571Y-109584819D02*
X177982618Y-109584819D01*
X177982618Y-109584819D02*
X177649285Y-109965771D01*
X177649285Y-109965771D02*
X177792142Y-109965771D01*
X177792142Y-109965771D02*
X177887380Y-110013390D01*
X177887380Y-110013390D02*
X177934999Y-110061009D01*
X177934999Y-110061009D02*
X177982618Y-110156247D01*
X177982618Y-110156247D02*
X177982618Y-110394342D01*
X177982618Y-110394342D02*
X177934999Y-110489580D01*
X177934999Y-110489580D02*
X177887380Y-110537200D01*
X177887380Y-110537200D02*
X177792142Y-110584819D01*
X177792142Y-110584819D02*
X177506428Y-110584819D01*
X177506428Y-110584819D02*
X177411190Y-110537200D01*
X177411190Y-110537200D02*
X177363571Y-110489580D01*
X167148571Y-99618390D02*
X167053333Y-99570771D01*
X167053333Y-99570771D02*
X167005714Y-99523152D01*
X167005714Y-99523152D02*
X166958095Y-99427914D01*
X166958095Y-99427914D02*
X166958095Y-99380295D01*
X166958095Y-99380295D02*
X167005714Y-99285057D01*
X167005714Y-99285057D02*
X167053333Y-99237438D01*
X167053333Y-99237438D02*
X167148571Y-99189819D01*
X167148571Y-99189819D02*
X167339047Y-99189819D01*
X167339047Y-99189819D02*
X167434285Y-99237438D01*
X167434285Y-99237438D02*
X167481904Y-99285057D01*
X167481904Y-99285057D02*
X167529523Y-99380295D01*
X167529523Y-99380295D02*
X167529523Y-99427914D01*
X167529523Y-99427914D02*
X167481904Y-99523152D01*
X167481904Y-99523152D02*
X167434285Y-99570771D01*
X167434285Y-99570771D02*
X167339047Y-99618390D01*
X167339047Y-99618390D02*
X167148571Y-99618390D01*
X167148571Y-99618390D02*
X167053333Y-99666009D01*
X167053333Y-99666009D02*
X167005714Y-99713628D01*
X167005714Y-99713628D02*
X166958095Y-99808866D01*
X166958095Y-99808866D02*
X166958095Y-99999342D01*
X166958095Y-99999342D02*
X167005714Y-100094580D01*
X167005714Y-100094580D02*
X167053333Y-100142200D01*
X167053333Y-100142200D02*
X167148571Y-100189819D01*
X167148571Y-100189819D02*
X167339047Y-100189819D01*
X167339047Y-100189819D02*
X167434285Y-100142200D01*
X167434285Y-100142200D02*
X167481904Y-100094580D01*
X167481904Y-100094580D02*
X167529523Y-99999342D01*
X167529523Y-99999342D02*
X167529523Y-99808866D01*
X167529523Y-99808866D02*
X167481904Y-99713628D01*
X167481904Y-99713628D02*
X167434285Y-99666009D01*
X167434285Y-99666009D02*
X167339047Y-99618390D01*
X167529523Y-108014819D02*
X166958095Y-108014819D01*
X167243809Y-108014819D02*
X167243809Y-107014819D01*
X167243809Y-107014819D02*
X167148571Y-107157676D01*
X167148571Y-107157676D02*
X167053333Y-107252914D01*
X167053333Y-107252914D02*
X166958095Y-107300533D01*
X168481904Y-108014819D02*
X167910476Y-108014819D01*
X168196190Y-108014819D02*
X168196190Y-107014819D01*
X168196190Y-107014819D02*
X168100952Y-107157676D01*
X168100952Y-107157676D02*
X168005714Y-107252914D01*
X168005714Y-107252914D02*
X167910476Y-107300533D01*
X160176667Y-96444819D02*
X160843333Y-96444819D01*
X160843333Y-96444819D02*
X160414762Y-97444819D01*
X160700476Y-89228152D02*
X160700476Y-89894819D01*
X160462381Y-88847200D02*
X160224286Y-89561485D01*
X160224286Y-89561485D02*
X160843333Y-89561485D01*
X160833095Y-76722438D02*
X160737857Y-76674819D01*
X160737857Y-76674819D02*
X160595000Y-76674819D01*
X160595000Y-76674819D02*
X160452143Y-76722438D01*
X160452143Y-76722438D02*
X160356905Y-76817676D01*
X160356905Y-76817676D02*
X160309286Y-76912914D01*
X160309286Y-76912914D02*
X160261667Y-77103390D01*
X160261667Y-77103390D02*
X160261667Y-77246247D01*
X160261667Y-77246247D02*
X160309286Y-77436723D01*
X160309286Y-77436723D02*
X160356905Y-77531961D01*
X160356905Y-77531961D02*
X160452143Y-77627200D01*
X160452143Y-77627200D02*
X160595000Y-77674819D01*
X160595000Y-77674819D02*
X160690238Y-77674819D01*
X160690238Y-77674819D02*
X160833095Y-77627200D01*
X160833095Y-77627200D02*
X160880714Y-77579580D01*
X160880714Y-77579580D02*
X160880714Y-77246247D01*
X160880714Y-77246247D02*
X160690238Y-77246247D01*
X160224286Y-83915057D02*
X160271905Y-83867438D01*
X160271905Y-83867438D02*
X160367143Y-83819819D01*
X160367143Y-83819819D02*
X160605238Y-83819819D01*
X160605238Y-83819819D02*
X160700476Y-83867438D01*
X160700476Y-83867438D02*
X160748095Y-83915057D01*
X160748095Y-83915057D02*
X160795714Y-84010295D01*
X160795714Y-84010295D02*
X160795714Y-84105533D01*
X160795714Y-84105533D02*
X160748095Y-84248390D01*
X160748095Y-84248390D02*
X160176667Y-84819819D01*
X160176667Y-84819819D02*
X160795714Y-84819819D01*
X176458809Y-86915771D02*
X176506428Y-86868152D01*
X176506428Y-86868152D02*
X176601666Y-86820533D01*
X176601666Y-86820533D02*
X176839761Y-86820533D01*
X176839761Y-86820533D02*
X176934999Y-86868152D01*
X176934999Y-86868152D02*
X176982618Y-86915771D01*
X176982618Y-86915771D02*
X177030237Y-87011009D01*
X177030237Y-87011009D02*
X177030237Y-87106247D01*
X177030237Y-87106247D02*
X176982618Y-87249104D01*
X176982618Y-87249104D02*
X176411190Y-87820533D01*
X176411190Y-87820533D02*
X177030237Y-87820533D01*
X177411190Y-86915771D02*
X177458809Y-86868152D01*
X177458809Y-86868152D02*
X177554047Y-86820533D01*
X177554047Y-86820533D02*
X177792142Y-86820533D01*
X177792142Y-86820533D02*
X177887380Y-86868152D01*
X177887380Y-86868152D02*
X177934999Y-86915771D01*
X177934999Y-86915771D02*
X177982618Y-87011009D01*
X177982618Y-87011009D02*
X177982618Y-87106247D01*
X177982618Y-87106247D02*
X177934999Y-87249104D01*
X177934999Y-87249104D02*
X177363571Y-87820533D01*
X177363571Y-87820533D02*
X177982618Y-87820533D01*
X167434285Y-89273152D02*
X167434285Y-89939819D01*
X167196190Y-88892200D02*
X166958095Y-89606485D01*
X166958095Y-89606485D02*
X167577142Y-89606485D01*
X175348571Y-77474580D02*
X176110476Y-77474580D01*
X175729523Y-77855533D02*
X175729523Y-77093628D01*
X177062856Y-76855533D02*
X176586666Y-76855533D01*
X176586666Y-76855533D02*
X176539047Y-77331723D01*
X176539047Y-77331723D02*
X176586666Y-77284104D01*
X176586666Y-77284104D02*
X176681904Y-77236485D01*
X176681904Y-77236485D02*
X176919999Y-77236485D01*
X176919999Y-77236485D02*
X177015237Y-77284104D01*
X177015237Y-77284104D02*
X177062856Y-77331723D01*
X177062856Y-77331723D02*
X177110475Y-77426961D01*
X177110475Y-77426961D02*
X177110475Y-77665056D01*
X177110475Y-77665056D02*
X177062856Y-77760294D01*
X177062856Y-77760294D02*
X177015237Y-77807914D01*
X177015237Y-77807914D02*
X176919999Y-77855533D01*
X176919999Y-77855533D02*
X176681904Y-77855533D01*
X176681904Y-77855533D02*
X176586666Y-77807914D01*
X176586666Y-77807914D02*
X176539047Y-77760294D01*
X177396190Y-76855533D02*
X177729523Y-77855533D01*
X177729523Y-77855533D02*
X178062856Y-76855533D01*
X177030237Y-102945533D02*
X176458809Y-102945533D01*
X176744523Y-102945533D02*
X176744523Y-101945533D01*
X176744523Y-101945533D02*
X176649285Y-102088390D01*
X176649285Y-102088390D02*
X176554047Y-102183628D01*
X176554047Y-102183628D02*
X176458809Y-102231247D01*
X177887380Y-101945533D02*
X177696904Y-101945533D01*
X177696904Y-101945533D02*
X177601666Y-101993152D01*
X177601666Y-101993152D02*
X177554047Y-102040771D01*
X177554047Y-102040771D02*
X177458809Y-102183628D01*
X177458809Y-102183628D02*
X177411190Y-102374104D01*
X177411190Y-102374104D02*
X177411190Y-102755056D01*
X177411190Y-102755056D02*
X177458809Y-102850294D01*
X177458809Y-102850294D02*
X177506428Y-102897914D01*
X177506428Y-102897914D02*
X177601666Y-102945533D01*
X177601666Y-102945533D02*
X177792142Y-102945533D01*
X177792142Y-102945533D02*
X177887380Y-102897914D01*
X177887380Y-102897914D02*
X177934999Y-102850294D01*
X177934999Y-102850294D02*
X177982618Y-102755056D01*
X177982618Y-102755056D02*
X177982618Y-102516961D01*
X177982618Y-102516961D02*
X177934999Y-102421723D01*
X177934999Y-102421723D02*
X177887380Y-102374104D01*
X177887380Y-102374104D02*
X177792142Y-102326485D01*
X177792142Y-102326485D02*
X177601666Y-102326485D01*
X177601666Y-102326485D02*
X177506428Y-102374104D01*
X177506428Y-102374104D02*
X177458809Y-102421723D01*
X177458809Y-102421723D02*
X177411190Y-102516961D01*
X167566904Y-76767438D02*
X167471666Y-76719819D01*
X167471666Y-76719819D02*
X167328809Y-76719819D01*
X167328809Y-76719819D02*
X167185952Y-76767438D01*
X167185952Y-76767438D02*
X167090714Y-76862676D01*
X167090714Y-76862676D02*
X167043095Y-76957914D01*
X167043095Y-76957914D02*
X166995476Y-77148390D01*
X166995476Y-77148390D02*
X166995476Y-77291247D01*
X166995476Y-77291247D02*
X167043095Y-77481723D01*
X167043095Y-77481723D02*
X167090714Y-77576961D01*
X167090714Y-77576961D02*
X167185952Y-77672200D01*
X167185952Y-77672200D02*
X167328809Y-77719819D01*
X167328809Y-77719819D02*
X167424047Y-77719819D01*
X167424047Y-77719819D02*
X167566904Y-77672200D01*
X167566904Y-77672200D02*
X167614523Y-77624580D01*
X167614523Y-77624580D02*
X167614523Y-77291247D01*
X167614523Y-77291247D02*
X167424047Y-77291247D01*
X177030237Y-105420533D02*
X176458809Y-105420533D01*
X176744523Y-105420533D02*
X176744523Y-104420533D01*
X176744523Y-104420533D02*
X176649285Y-104563390D01*
X176649285Y-104563390D02*
X176554047Y-104658628D01*
X176554047Y-104658628D02*
X176458809Y-104706247D01*
X177934999Y-104420533D02*
X177458809Y-104420533D01*
X177458809Y-104420533D02*
X177411190Y-104896723D01*
X177411190Y-104896723D02*
X177458809Y-104849104D01*
X177458809Y-104849104D02*
X177554047Y-104801485D01*
X177554047Y-104801485D02*
X177792142Y-104801485D01*
X177792142Y-104801485D02*
X177887380Y-104849104D01*
X177887380Y-104849104D02*
X177934999Y-104896723D01*
X177934999Y-104896723D02*
X177982618Y-104991961D01*
X177982618Y-104991961D02*
X177982618Y-105230056D01*
X177982618Y-105230056D02*
X177934999Y-105325294D01*
X177934999Y-105325294D02*
X177887380Y-105372914D01*
X177887380Y-105372914D02*
X177792142Y-105420533D01*
X177792142Y-105420533D02*
X177554047Y-105420533D01*
X177554047Y-105420533D02*
X177458809Y-105372914D01*
X177458809Y-105372914D02*
X177411190Y-105325294D01*
X177030237Y-100370533D02*
X176458809Y-100370533D01*
X176744523Y-100370533D02*
X176744523Y-99370533D01*
X176744523Y-99370533D02*
X176649285Y-99513390D01*
X176649285Y-99513390D02*
X176554047Y-99608628D01*
X176554047Y-99608628D02*
X176458809Y-99656247D01*
X177363571Y-99370533D02*
X178030237Y-99370533D01*
X178030237Y-99370533D02*
X177601666Y-100370533D01*
X187075714Y-79477438D02*
X186980476Y-79429819D01*
X186980476Y-79429819D02*
X186837619Y-79429819D01*
X186837619Y-79429819D02*
X186694762Y-79477438D01*
X186694762Y-79477438D02*
X186599524Y-79572676D01*
X186599524Y-79572676D02*
X186551905Y-79667914D01*
X186551905Y-79667914D02*
X186504286Y-79858390D01*
X186504286Y-79858390D02*
X186504286Y-80001247D01*
X186504286Y-80001247D02*
X186551905Y-80191723D01*
X186551905Y-80191723D02*
X186599524Y-80286961D01*
X186599524Y-80286961D02*
X186694762Y-80382200D01*
X186694762Y-80382200D02*
X186837619Y-80429819D01*
X186837619Y-80429819D02*
X186932857Y-80429819D01*
X186932857Y-80429819D02*
X187075714Y-80382200D01*
X187075714Y-80382200D02*
X187123333Y-80334580D01*
X187123333Y-80334580D02*
X187123333Y-80001247D01*
X187123333Y-80001247D02*
X186932857Y-80001247D01*
X160795714Y-105394819D02*
X160224286Y-105394819D01*
X160510000Y-105394819D02*
X160510000Y-104394819D01*
X160510000Y-104394819D02*
X160414762Y-104537676D01*
X160414762Y-104537676D02*
X160319524Y-104632914D01*
X160319524Y-104632914D02*
X160224286Y-104680533D01*
X161414762Y-104394819D02*
X161510000Y-104394819D01*
X161510000Y-104394819D02*
X161605238Y-104442438D01*
X161605238Y-104442438D02*
X161652857Y-104490057D01*
X161652857Y-104490057D02*
X161700476Y-104585295D01*
X161700476Y-104585295D02*
X161748095Y-104775771D01*
X161748095Y-104775771D02*
X161748095Y-105013866D01*
X161748095Y-105013866D02*
X161700476Y-105204342D01*
X161700476Y-105204342D02*
X161652857Y-105299580D01*
X161652857Y-105299580D02*
X161605238Y-105347200D01*
X161605238Y-105347200D02*
X161510000Y-105394819D01*
X161510000Y-105394819D02*
X161414762Y-105394819D01*
X161414762Y-105394819D02*
X161319524Y-105347200D01*
X161319524Y-105347200D02*
X161271905Y-105299580D01*
X161271905Y-105299580D02*
X161224286Y-105204342D01*
X161224286Y-105204342D02*
X161176667Y-105013866D01*
X161176667Y-105013866D02*
X161176667Y-104775771D01*
X161176667Y-104775771D02*
X161224286Y-104585295D01*
X161224286Y-104585295D02*
X161271905Y-104490057D01*
X161271905Y-104490057D02*
X161319524Y-104442438D01*
X161319524Y-104442438D02*
X161414762Y-104394819D01*
X160795714Y-110684819D02*
X160224286Y-110684819D01*
X160510000Y-110684819D02*
X160510000Y-109684819D01*
X160510000Y-109684819D02*
X160414762Y-109827676D01*
X160414762Y-109827676D02*
X160319524Y-109922914D01*
X160319524Y-109922914D02*
X160224286Y-109970533D01*
X161176667Y-109780057D02*
X161224286Y-109732438D01*
X161224286Y-109732438D02*
X161319524Y-109684819D01*
X161319524Y-109684819D02*
X161557619Y-109684819D01*
X161557619Y-109684819D02*
X161652857Y-109732438D01*
X161652857Y-109732438D02*
X161700476Y-109780057D01*
X161700476Y-109780057D02*
X161748095Y-109875295D01*
X161748095Y-109875295D02*
X161748095Y-109970533D01*
X161748095Y-109970533D02*
X161700476Y-110113390D01*
X161700476Y-110113390D02*
X161129048Y-110684819D01*
X161129048Y-110684819D02*
X161748095Y-110684819D01*
X176458809Y-91940771D02*
X176506428Y-91893152D01*
X176506428Y-91893152D02*
X176601666Y-91845533D01*
X176601666Y-91845533D02*
X176839761Y-91845533D01*
X176839761Y-91845533D02*
X176934999Y-91893152D01*
X176934999Y-91893152D02*
X176982618Y-91940771D01*
X176982618Y-91940771D02*
X177030237Y-92036009D01*
X177030237Y-92036009D02*
X177030237Y-92131247D01*
X177030237Y-92131247D02*
X176982618Y-92274104D01*
X176982618Y-92274104D02*
X176411190Y-92845533D01*
X176411190Y-92845533D02*
X177030237Y-92845533D01*
X177649285Y-91845533D02*
X177744523Y-91845533D01*
X177744523Y-91845533D02*
X177839761Y-91893152D01*
X177839761Y-91893152D02*
X177887380Y-91940771D01*
X177887380Y-91940771D02*
X177934999Y-92036009D01*
X177934999Y-92036009D02*
X177982618Y-92226485D01*
X177982618Y-92226485D02*
X177982618Y-92464580D01*
X177982618Y-92464580D02*
X177934999Y-92655056D01*
X177934999Y-92655056D02*
X177887380Y-92750294D01*
X177887380Y-92750294D02*
X177839761Y-92797914D01*
X177839761Y-92797914D02*
X177744523Y-92845533D01*
X177744523Y-92845533D02*
X177649285Y-92845533D01*
X177649285Y-92845533D02*
X177554047Y-92797914D01*
X177554047Y-92797914D02*
X177506428Y-92750294D01*
X177506428Y-92750294D02*
X177458809Y-92655056D01*
X177458809Y-92655056D02*
X177411190Y-92464580D01*
X177411190Y-92464580D02*
X177411190Y-92226485D01*
X177411190Y-92226485D02*
X177458809Y-92036009D01*
X177458809Y-92036009D02*
X177506428Y-91940771D01*
X177506428Y-91940771D02*
X177554047Y-91893152D01*
X177554047Y-91893152D02*
X177649285Y-91845533D01*
X186185952Y-95194819D02*
X185614524Y-95194819D01*
X185900238Y-95194819D02*
X185900238Y-94194819D01*
X185900238Y-94194819D02*
X185805000Y-94337676D01*
X185805000Y-94337676D02*
X185709762Y-94432914D01*
X185709762Y-94432914D02*
X185614524Y-94480533D01*
X186662143Y-95194819D02*
X186852619Y-95194819D01*
X186852619Y-95194819D02*
X186947857Y-95147200D01*
X186947857Y-95147200D02*
X186995476Y-95099580D01*
X186995476Y-95099580D02*
X187090714Y-94956723D01*
X187090714Y-94956723D02*
X187138333Y-94766247D01*
X187138333Y-94766247D02*
X187138333Y-94385295D01*
X187138333Y-94385295D02*
X187090714Y-94290057D01*
X187090714Y-94290057D02*
X187043095Y-94242438D01*
X187043095Y-94242438D02*
X186947857Y-94194819D01*
X186947857Y-94194819D02*
X186757381Y-94194819D01*
X186757381Y-94194819D02*
X186662143Y-94242438D01*
X186662143Y-94242438D02*
X186614524Y-94290057D01*
X186614524Y-94290057D02*
X186566905Y-94385295D01*
X186566905Y-94385295D02*
X186566905Y-94623390D01*
X186566905Y-94623390D02*
X186614524Y-94718628D01*
X186614524Y-94718628D02*
X186662143Y-94766247D01*
X186662143Y-94766247D02*
X186757381Y-94813866D01*
X186757381Y-94813866D02*
X186947857Y-94813866D01*
X186947857Y-94813866D02*
X187043095Y-94766247D01*
X187043095Y-94766247D02*
X187090714Y-94718628D01*
X187090714Y-94718628D02*
X187138333Y-94623390D01*
X167196190Y-78889819D02*
X167291428Y-78889819D01*
X167291428Y-78889819D02*
X167386666Y-78937438D01*
X167386666Y-78937438D02*
X167434285Y-78985057D01*
X167434285Y-78985057D02*
X167481904Y-79080295D01*
X167481904Y-79080295D02*
X167529523Y-79270771D01*
X167529523Y-79270771D02*
X167529523Y-79508866D01*
X167529523Y-79508866D02*
X167481904Y-79699342D01*
X167481904Y-79699342D02*
X167434285Y-79794580D01*
X167434285Y-79794580D02*
X167386666Y-79842200D01*
X167386666Y-79842200D02*
X167291428Y-79889819D01*
X167291428Y-79889819D02*
X167196190Y-79889819D01*
X167196190Y-79889819D02*
X167100952Y-79842200D01*
X167100952Y-79842200D02*
X167053333Y-79794580D01*
X167053333Y-79794580D02*
X167005714Y-79699342D01*
X167005714Y-79699342D02*
X166958095Y-79508866D01*
X166958095Y-79508866D02*
X166958095Y-79270771D01*
X166958095Y-79270771D02*
X167005714Y-79080295D01*
X167005714Y-79080295D02*
X167053333Y-78985057D01*
X167053333Y-78985057D02*
X167100952Y-78937438D01*
X167100952Y-78937438D02*
X167196190Y-78889819D01*
X166958095Y-83960057D02*
X167005714Y-83912438D01*
X167005714Y-83912438D02*
X167100952Y-83864819D01*
X167100952Y-83864819D02*
X167339047Y-83864819D01*
X167339047Y-83864819D02*
X167434285Y-83912438D01*
X167434285Y-83912438D02*
X167481904Y-83960057D01*
X167481904Y-83960057D02*
X167529523Y-84055295D01*
X167529523Y-84055295D02*
X167529523Y-84150533D01*
X167529523Y-84150533D02*
X167481904Y-84293390D01*
X167481904Y-84293390D02*
X166910476Y-84864819D01*
X166910476Y-84864819D02*
X167529523Y-84864819D01*
X172461904Y-125492438D02*
X172366666Y-125444819D01*
X172366666Y-125444819D02*
X172223809Y-125444819D01*
X172223809Y-125444819D02*
X172080952Y-125492438D01*
X172080952Y-125492438D02*
X171985714Y-125587676D01*
X171985714Y-125587676D02*
X171938095Y-125682914D01*
X171938095Y-125682914D02*
X171890476Y-125873390D01*
X171890476Y-125873390D02*
X171890476Y-126016247D01*
X171890476Y-126016247D02*
X171938095Y-126206723D01*
X171938095Y-126206723D02*
X171985714Y-126301961D01*
X171985714Y-126301961D02*
X172080952Y-126397200D01*
X172080952Y-126397200D02*
X172223809Y-126444819D01*
X172223809Y-126444819D02*
X172319047Y-126444819D01*
X172319047Y-126444819D02*
X172461904Y-126397200D01*
X172461904Y-126397200D02*
X172509523Y-126349580D01*
X172509523Y-126349580D02*
X172509523Y-126016247D01*
X172509523Y-126016247D02*
X172319047Y-126016247D01*
X160176667Y-86444819D02*
X160795714Y-86444819D01*
X160795714Y-86444819D02*
X160462381Y-86825771D01*
X160462381Y-86825771D02*
X160605238Y-86825771D01*
X160605238Y-86825771D02*
X160700476Y-86873390D01*
X160700476Y-86873390D02*
X160748095Y-86921009D01*
X160748095Y-86921009D02*
X160795714Y-87016247D01*
X160795714Y-87016247D02*
X160795714Y-87254342D01*
X160795714Y-87254342D02*
X160748095Y-87349580D01*
X160748095Y-87349580D02*
X160700476Y-87397200D01*
X160700476Y-87397200D02*
X160605238Y-87444819D01*
X160605238Y-87444819D02*
X160319524Y-87444819D01*
X160319524Y-87444819D02*
X160224286Y-87397200D01*
X160224286Y-87397200D02*
X160176667Y-87349580D01*
X186185952Y-102944819D02*
X185614524Y-102944819D01*
X185900238Y-102944819D02*
X185900238Y-101944819D01*
X185900238Y-101944819D02*
X185805000Y-102087676D01*
X185805000Y-102087676D02*
X185709762Y-102182914D01*
X185709762Y-102182914D02*
X185614524Y-102230533D01*
X187043095Y-101944819D02*
X186852619Y-101944819D01*
X186852619Y-101944819D02*
X186757381Y-101992438D01*
X186757381Y-101992438D02*
X186709762Y-102040057D01*
X186709762Y-102040057D02*
X186614524Y-102182914D01*
X186614524Y-102182914D02*
X186566905Y-102373390D01*
X186566905Y-102373390D02*
X186566905Y-102754342D01*
X186566905Y-102754342D02*
X186614524Y-102849580D01*
X186614524Y-102849580D02*
X186662143Y-102897200D01*
X186662143Y-102897200D02*
X186757381Y-102944819D01*
X186757381Y-102944819D02*
X186947857Y-102944819D01*
X186947857Y-102944819D02*
X187043095Y-102897200D01*
X187043095Y-102897200D02*
X187090714Y-102849580D01*
X187090714Y-102849580D02*
X187138333Y-102754342D01*
X187138333Y-102754342D02*
X187138333Y-102516247D01*
X187138333Y-102516247D02*
X187090714Y-102421009D01*
X187090714Y-102421009D02*
X187043095Y-102373390D01*
X187043095Y-102373390D02*
X186947857Y-102325771D01*
X186947857Y-102325771D02*
X186757381Y-102325771D01*
X186757381Y-102325771D02*
X186662143Y-102373390D01*
X186662143Y-102373390D02*
X186614524Y-102421009D01*
X186614524Y-102421009D02*
X186566905Y-102516247D01*
X176458809Y-89490771D02*
X176506428Y-89443152D01*
X176506428Y-89443152D02*
X176601666Y-89395533D01*
X176601666Y-89395533D02*
X176839761Y-89395533D01*
X176839761Y-89395533D02*
X176934999Y-89443152D01*
X176934999Y-89443152D02*
X176982618Y-89490771D01*
X176982618Y-89490771D02*
X177030237Y-89586009D01*
X177030237Y-89586009D02*
X177030237Y-89681247D01*
X177030237Y-89681247D02*
X176982618Y-89824104D01*
X176982618Y-89824104D02*
X176411190Y-90395533D01*
X176411190Y-90395533D02*
X177030237Y-90395533D01*
X177982618Y-90395533D02*
X177411190Y-90395533D01*
X177696904Y-90395533D02*
X177696904Y-89395533D01*
X177696904Y-89395533D02*
X177601666Y-89538390D01*
X177601666Y-89538390D02*
X177506428Y-89633628D01*
X177506428Y-89633628D02*
X177411190Y-89681247D01*
X160795714Y-82394819D02*
X160224286Y-82394819D01*
X160510000Y-82394819D02*
X160510000Y-81394819D01*
X160510000Y-81394819D02*
X160414762Y-81537676D01*
X160414762Y-81537676D02*
X160319524Y-81632914D01*
X160319524Y-81632914D02*
X160224286Y-81680533D01*
X186185952Y-110584819D02*
X185614524Y-110584819D01*
X185900238Y-110584819D02*
X185900238Y-109584819D01*
X185900238Y-109584819D02*
X185805000Y-109727676D01*
X185805000Y-109727676D02*
X185709762Y-109822914D01*
X185709762Y-109822914D02*
X185614524Y-109870533D01*
X186519286Y-109584819D02*
X187138333Y-109584819D01*
X187138333Y-109584819D02*
X186805000Y-109965771D01*
X186805000Y-109965771D02*
X186947857Y-109965771D01*
X186947857Y-109965771D02*
X187043095Y-110013390D01*
X187043095Y-110013390D02*
X187090714Y-110061009D01*
X187090714Y-110061009D02*
X187138333Y-110156247D01*
X187138333Y-110156247D02*
X187138333Y-110394342D01*
X187138333Y-110394342D02*
X187090714Y-110489580D01*
X187090714Y-110489580D02*
X187043095Y-110537200D01*
X187043095Y-110537200D02*
X186947857Y-110584819D01*
X186947857Y-110584819D02*
X186662143Y-110584819D01*
X186662143Y-110584819D02*
X186566905Y-110537200D01*
X186566905Y-110537200D02*
X186519286Y-110489580D01*
X186185952Y-97794819D02*
X185614524Y-97794819D01*
X185900238Y-97794819D02*
X185900238Y-96794819D01*
X185900238Y-96794819D02*
X185805000Y-96937676D01*
X185805000Y-96937676D02*
X185709762Y-97032914D01*
X185709762Y-97032914D02*
X185614524Y-97080533D01*
X186757381Y-97223390D02*
X186662143Y-97175771D01*
X186662143Y-97175771D02*
X186614524Y-97128152D01*
X186614524Y-97128152D02*
X186566905Y-97032914D01*
X186566905Y-97032914D02*
X186566905Y-96985295D01*
X186566905Y-96985295D02*
X186614524Y-96890057D01*
X186614524Y-96890057D02*
X186662143Y-96842438D01*
X186662143Y-96842438D02*
X186757381Y-96794819D01*
X186757381Y-96794819D02*
X186947857Y-96794819D01*
X186947857Y-96794819D02*
X187043095Y-96842438D01*
X187043095Y-96842438D02*
X187090714Y-96890057D01*
X187090714Y-96890057D02*
X187138333Y-96985295D01*
X187138333Y-96985295D02*
X187138333Y-97032914D01*
X187138333Y-97032914D02*
X187090714Y-97128152D01*
X187090714Y-97128152D02*
X187043095Y-97175771D01*
X187043095Y-97175771D02*
X186947857Y-97223390D01*
X186947857Y-97223390D02*
X186757381Y-97223390D01*
X186757381Y-97223390D02*
X186662143Y-97271009D01*
X186662143Y-97271009D02*
X186614524Y-97318628D01*
X186614524Y-97318628D02*
X186566905Y-97413866D01*
X186566905Y-97413866D02*
X186566905Y-97604342D01*
X186566905Y-97604342D02*
X186614524Y-97699580D01*
X186614524Y-97699580D02*
X186662143Y-97747200D01*
X186662143Y-97747200D02*
X186757381Y-97794819D01*
X186757381Y-97794819D02*
X186947857Y-97794819D01*
X186947857Y-97794819D02*
X187043095Y-97747200D01*
X187043095Y-97747200D02*
X187090714Y-97699580D01*
X187090714Y-97699580D02*
X187138333Y-97604342D01*
X187138333Y-97604342D02*
X187138333Y-97413866D01*
X187138333Y-97413866D02*
X187090714Y-97318628D01*
X187090714Y-97318628D02*
X187043095Y-97271009D01*
X187043095Y-97271009D02*
X186947857Y-97223390D01*
X167053333Y-102839819D02*
X167243809Y-102839819D01*
X167243809Y-102839819D02*
X167339047Y-102792200D01*
X167339047Y-102792200D02*
X167386666Y-102744580D01*
X167386666Y-102744580D02*
X167481904Y-102601723D01*
X167481904Y-102601723D02*
X167529523Y-102411247D01*
X167529523Y-102411247D02*
X167529523Y-102030295D01*
X167529523Y-102030295D02*
X167481904Y-101935057D01*
X167481904Y-101935057D02*
X167434285Y-101887438D01*
X167434285Y-101887438D02*
X167339047Y-101839819D01*
X167339047Y-101839819D02*
X167148571Y-101839819D01*
X167148571Y-101839819D02*
X167053333Y-101887438D01*
X167053333Y-101887438D02*
X167005714Y-101935057D01*
X167005714Y-101935057D02*
X166958095Y-102030295D01*
X166958095Y-102030295D02*
X166958095Y-102268390D01*
X166958095Y-102268390D02*
X167005714Y-102363628D01*
X167005714Y-102363628D02*
X167053333Y-102411247D01*
X167053333Y-102411247D02*
X167148571Y-102458866D01*
X167148571Y-102458866D02*
X167339047Y-102458866D01*
X167339047Y-102458866D02*
X167434285Y-102411247D01*
X167434285Y-102411247D02*
X167481904Y-102363628D01*
X167481904Y-102363628D02*
X167529523Y-102268390D01*
X160748095Y-91644819D02*
X160271905Y-91644819D01*
X160271905Y-91644819D02*
X160224286Y-92121009D01*
X160224286Y-92121009D02*
X160271905Y-92073390D01*
X160271905Y-92073390D02*
X160367143Y-92025771D01*
X160367143Y-92025771D02*
X160605238Y-92025771D01*
X160605238Y-92025771D02*
X160700476Y-92073390D01*
X160700476Y-92073390D02*
X160748095Y-92121009D01*
X160748095Y-92121009D02*
X160795714Y-92216247D01*
X160795714Y-92216247D02*
X160795714Y-92454342D01*
X160795714Y-92454342D02*
X160748095Y-92549580D01*
X160748095Y-92549580D02*
X160700476Y-92597200D01*
X160700476Y-92597200D02*
X160605238Y-92644819D01*
X160605238Y-92644819D02*
X160367143Y-92644819D01*
X160367143Y-92644819D02*
X160271905Y-92597200D01*
X160271905Y-92597200D02*
X160224286Y-92549580D01*
X166910476Y-96489819D02*
X167577142Y-96489819D01*
X167577142Y-96489819D02*
X167148571Y-97489819D01*
X173920000Y-82524580D02*
X174681905Y-82524580D01*
X174300952Y-82905533D02*
X174300952Y-82143628D01*
X175062857Y-81905533D02*
X175681904Y-81905533D01*
X175681904Y-81905533D02*
X175348571Y-82286485D01*
X175348571Y-82286485D02*
X175491428Y-82286485D01*
X175491428Y-82286485D02*
X175586666Y-82334104D01*
X175586666Y-82334104D02*
X175634285Y-82381723D01*
X175634285Y-82381723D02*
X175681904Y-82476961D01*
X175681904Y-82476961D02*
X175681904Y-82715056D01*
X175681904Y-82715056D02*
X175634285Y-82810294D01*
X175634285Y-82810294D02*
X175586666Y-82857914D01*
X175586666Y-82857914D02*
X175491428Y-82905533D01*
X175491428Y-82905533D02*
X175205714Y-82905533D01*
X175205714Y-82905533D02*
X175110476Y-82857914D01*
X175110476Y-82857914D02*
X175062857Y-82810294D01*
X176110476Y-82810294D02*
X176158095Y-82857914D01*
X176158095Y-82857914D02*
X176110476Y-82905533D01*
X176110476Y-82905533D02*
X176062857Y-82857914D01*
X176062857Y-82857914D02*
X176110476Y-82810294D01*
X176110476Y-82810294D02*
X176110476Y-82905533D01*
X176491428Y-81905533D02*
X177110475Y-81905533D01*
X177110475Y-81905533D02*
X176777142Y-82286485D01*
X176777142Y-82286485D02*
X176919999Y-82286485D01*
X176919999Y-82286485D02*
X177015237Y-82334104D01*
X177015237Y-82334104D02*
X177062856Y-82381723D01*
X177062856Y-82381723D02*
X177110475Y-82476961D01*
X177110475Y-82476961D02*
X177110475Y-82715056D01*
X177110475Y-82715056D02*
X177062856Y-82810294D01*
X177062856Y-82810294D02*
X177015237Y-82857914D01*
X177015237Y-82857914D02*
X176919999Y-82905533D01*
X176919999Y-82905533D02*
X176634285Y-82905533D01*
X176634285Y-82905533D02*
X176539047Y-82857914D01*
X176539047Y-82857914D02*
X176491428Y-82810294D01*
X177396190Y-81905533D02*
X177729523Y-82905533D01*
X177729523Y-82905533D02*
X178062856Y-81905533D01*
X160414762Y-99573390D02*
X160319524Y-99525771D01*
X160319524Y-99525771D02*
X160271905Y-99478152D01*
X160271905Y-99478152D02*
X160224286Y-99382914D01*
X160224286Y-99382914D02*
X160224286Y-99335295D01*
X160224286Y-99335295D02*
X160271905Y-99240057D01*
X160271905Y-99240057D02*
X160319524Y-99192438D01*
X160319524Y-99192438D02*
X160414762Y-99144819D01*
X160414762Y-99144819D02*
X160605238Y-99144819D01*
X160605238Y-99144819D02*
X160700476Y-99192438D01*
X160700476Y-99192438D02*
X160748095Y-99240057D01*
X160748095Y-99240057D02*
X160795714Y-99335295D01*
X160795714Y-99335295D02*
X160795714Y-99382914D01*
X160795714Y-99382914D02*
X160748095Y-99478152D01*
X160748095Y-99478152D02*
X160700476Y-99525771D01*
X160700476Y-99525771D02*
X160605238Y-99573390D01*
X160605238Y-99573390D02*
X160414762Y-99573390D01*
X160414762Y-99573390D02*
X160319524Y-99621009D01*
X160319524Y-99621009D02*
X160271905Y-99668628D01*
X160271905Y-99668628D02*
X160224286Y-99763866D01*
X160224286Y-99763866D02*
X160224286Y-99954342D01*
X160224286Y-99954342D02*
X160271905Y-100049580D01*
X160271905Y-100049580D02*
X160319524Y-100097200D01*
X160319524Y-100097200D02*
X160414762Y-100144819D01*
X160414762Y-100144819D02*
X160605238Y-100144819D01*
X160605238Y-100144819D02*
X160700476Y-100097200D01*
X160700476Y-100097200D02*
X160748095Y-100049580D01*
X160748095Y-100049580D02*
X160795714Y-99954342D01*
X160795714Y-99954342D02*
X160795714Y-99763866D01*
X160795714Y-99763866D02*
X160748095Y-99668628D01*
X160748095Y-99668628D02*
X160700476Y-99621009D01*
X160700476Y-99621009D02*
X160605238Y-99573390D01*
X185614524Y-91940057D02*
X185662143Y-91892438D01*
X185662143Y-91892438D02*
X185757381Y-91844819D01*
X185757381Y-91844819D02*
X185995476Y-91844819D01*
X185995476Y-91844819D02*
X186090714Y-91892438D01*
X186090714Y-91892438D02*
X186138333Y-91940057D01*
X186138333Y-91940057D02*
X186185952Y-92035295D01*
X186185952Y-92035295D02*
X186185952Y-92130533D01*
X186185952Y-92130533D02*
X186138333Y-92273390D01*
X186138333Y-92273390D02*
X185566905Y-92844819D01*
X185566905Y-92844819D02*
X186185952Y-92844819D01*
X186805000Y-91844819D02*
X186900238Y-91844819D01*
X186900238Y-91844819D02*
X186995476Y-91892438D01*
X186995476Y-91892438D02*
X187043095Y-91940057D01*
X187043095Y-91940057D02*
X187090714Y-92035295D01*
X187090714Y-92035295D02*
X187138333Y-92225771D01*
X187138333Y-92225771D02*
X187138333Y-92463866D01*
X187138333Y-92463866D02*
X187090714Y-92654342D01*
X187090714Y-92654342D02*
X187043095Y-92749580D01*
X187043095Y-92749580D02*
X186995476Y-92797200D01*
X186995476Y-92797200D02*
X186900238Y-92844819D01*
X186900238Y-92844819D02*
X186805000Y-92844819D01*
X186805000Y-92844819D02*
X186709762Y-92797200D01*
X186709762Y-92797200D02*
X186662143Y-92749580D01*
X186662143Y-92749580D02*
X186614524Y-92654342D01*
X186614524Y-92654342D02*
X186566905Y-92463866D01*
X186566905Y-92463866D02*
X186566905Y-92225771D01*
X186566905Y-92225771D02*
X186614524Y-92035295D01*
X186614524Y-92035295D02*
X186662143Y-91940057D01*
X186662143Y-91940057D02*
X186709762Y-91892438D01*
X186709762Y-91892438D02*
X186805000Y-91844819D01*
X186185952Y-100369819D02*
X185614524Y-100369819D01*
X185900238Y-100369819D02*
X185900238Y-99369819D01*
X185900238Y-99369819D02*
X185805000Y-99512676D01*
X185805000Y-99512676D02*
X185709762Y-99607914D01*
X185709762Y-99607914D02*
X185614524Y-99655533D01*
X186519286Y-99369819D02*
X187185952Y-99369819D01*
X187185952Y-99369819D02*
X186757381Y-100369819D01*
X176458809Y-84490771D02*
X176506428Y-84443152D01*
X176506428Y-84443152D02*
X176601666Y-84395533D01*
X176601666Y-84395533D02*
X176839761Y-84395533D01*
X176839761Y-84395533D02*
X176934999Y-84443152D01*
X176934999Y-84443152D02*
X176982618Y-84490771D01*
X176982618Y-84490771D02*
X177030237Y-84586009D01*
X177030237Y-84586009D02*
X177030237Y-84681247D01*
X177030237Y-84681247D02*
X176982618Y-84824104D01*
X176982618Y-84824104D02*
X176411190Y-85395533D01*
X176411190Y-85395533D02*
X177030237Y-85395533D01*
X177363571Y-84395533D02*
X177982618Y-84395533D01*
X177982618Y-84395533D02*
X177649285Y-84776485D01*
X177649285Y-84776485D02*
X177792142Y-84776485D01*
X177792142Y-84776485D02*
X177887380Y-84824104D01*
X177887380Y-84824104D02*
X177934999Y-84871723D01*
X177934999Y-84871723D02*
X177982618Y-84966961D01*
X177982618Y-84966961D02*
X177982618Y-85205056D01*
X177982618Y-85205056D02*
X177934999Y-85300294D01*
X177934999Y-85300294D02*
X177887380Y-85347914D01*
X177887380Y-85347914D02*
X177792142Y-85395533D01*
X177792142Y-85395533D02*
X177506428Y-85395533D01*
X177506428Y-85395533D02*
X177411190Y-85347914D01*
X177411190Y-85347914D02*
X177363571Y-85300294D01*
X160795714Y-107969819D02*
X160224286Y-107969819D01*
X160510000Y-107969819D02*
X160510000Y-106969819D01*
X160510000Y-106969819D02*
X160414762Y-107112676D01*
X160414762Y-107112676D02*
X160319524Y-107207914D01*
X160319524Y-107207914D02*
X160224286Y-107255533D01*
X161748095Y-107969819D02*
X161176667Y-107969819D01*
X161462381Y-107969819D02*
X161462381Y-106969819D01*
X161462381Y-106969819D02*
X161367143Y-107112676D01*
X161367143Y-107112676D02*
X161271905Y-107207914D01*
X161271905Y-107207914D02*
X161176667Y-107255533D01*
X172335894Y-90901666D02*
X172335894Y-91473094D01*
X171335894Y-91187380D02*
X172335894Y-91187380D01*
X171859704Y-91806428D02*
X171859704Y-92139761D01*
X171335894Y-92282618D02*
X171335894Y-91806428D01*
X171335894Y-91806428D02*
X172335894Y-91806428D01*
X172335894Y-91806428D02*
X172335894Y-92282618D01*
X171859704Y-92711190D02*
X171859704Y-93044523D01*
X171335894Y-93187380D02*
X171335894Y-92711190D01*
X171335894Y-92711190D02*
X172335894Y-92711190D01*
X172335894Y-92711190D02*
X172335894Y-93187380D01*
X171335894Y-93615952D02*
X172335894Y-93615952D01*
X172335894Y-93615952D02*
X171335894Y-94187380D01*
X171335894Y-94187380D02*
X172335894Y-94187380D01*
X171383514Y-94615952D02*
X171335894Y-94758809D01*
X171335894Y-94758809D02*
X171335894Y-94996904D01*
X171335894Y-94996904D02*
X171383514Y-95092142D01*
X171383514Y-95092142D02*
X171431133Y-95139761D01*
X171431133Y-95139761D02*
X171526371Y-95187380D01*
X171526371Y-95187380D02*
X171621609Y-95187380D01*
X171621609Y-95187380D02*
X171716847Y-95139761D01*
X171716847Y-95139761D02*
X171764466Y-95092142D01*
X171764466Y-95092142D02*
X171812085Y-94996904D01*
X171812085Y-94996904D02*
X171859704Y-94806428D01*
X171859704Y-94806428D02*
X171907323Y-94711190D01*
X171907323Y-94711190D02*
X171954942Y-94663571D01*
X171954942Y-94663571D02*
X172050180Y-94615952D01*
X172050180Y-94615952D02*
X172145418Y-94615952D01*
X172145418Y-94615952D02*
X172240656Y-94663571D01*
X172240656Y-94663571D02*
X172288275Y-94711190D01*
X172288275Y-94711190D02*
X172335894Y-94806428D01*
X172335894Y-94806428D02*
X172335894Y-95044523D01*
X172335894Y-95044523D02*
X172288275Y-95187380D01*
X171812085Y-95806428D02*
X171335894Y-95806428D01*
X172335894Y-95473095D02*
X171812085Y-95806428D01*
X171812085Y-95806428D02*
X172335894Y-96139761D01*
X160319524Y-102794819D02*
X160510000Y-102794819D01*
X160510000Y-102794819D02*
X160605238Y-102747200D01*
X160605238Y-102747200D02*
X160652857Y-102699580D01*
X160652857Y-102699580D02*
X160748095Y-102556723D01*
X160748095Y-102556723D02*
X160795714Y-102366247D01*
X160795714Y-102366247D02*
X160795714Y-101985295D01*
X160795714Y-101985295D02*
X160748095Y-101890057D01*
X160748095Y-101890057D02*
X160700476Y-101842438D01*
X160700476Y-101842438D02*
X160605238Y-101794819D01*
X160605238Y-101794819D02*
X160414762Y-101794819D01*
X160414762Y-101794819D02*
X160319524Y-101842438D01*
X160319524Y-101842438D02*
X160271905Y-101890057D01*
X160271905Y-101890057D02*
X160224286Y-101985295D01*
X160224286Y-101985295D02*
X160224286Y-102223390D01*
X160224286Y-102223390D02*
X160271905Y-102318628D01*
X160271905Y-102318628D02*
X160319524Y-102366247D01*
X160319524Y-102366247D02*
X160414762Y-102413866D01*
X160414762Y-102413866D02*
X160605238Y-102413866D01*
X160605238Y-102413866D02*
X160700476Y-102366247D01*
X160700476Y-102366247D02*
X160748095Y-102318628D01*
X160748095Y-102318628D02*
X160795714Y-102223390D01*
X166394286Y-126143866D02*
X167156191Y-126143866D01*
X166775238Y-126524819D02*
X166775238Y-125762914D01*
X168108571Y-125524819D02*
X167632381Y-125524819D01*
X167632381Y-125524819D02*
X167584762Y-126001009D01*
X167584762Y-126001009D02*
X167632381Y-125953390D01*
X167632381Y-125953390D02*
X167727619Y-125905771D01*
X167727619Y-125905771D02*
X167965714Y-125905771D01*
X167965714Y-125905771D02*
X168060952Y-125953390D01*
X168060952Y-125953390D02*
X168108571Y-126001009D01*
X168108571Y-126001009D02*
X168156190Y-126096247D01*
X168156190Y-126096247D02*
X168156190Y-126334342D01*
X168156190Y-126334342D02*
X168108571Y-126429580D01*
X168108571Y-126429580D02*
X168060952Y-126477200D01*
X168060952Y-126477200D02*
X167965714Y-126524819D01*
X167965714Y-126524819D02*
X167727619Y-126524819D01*
X167727619Y-126524819D02*
X167632381Y-126477200D01*
X167632381Y-126477200D02*
X167584762Y-126429580D01*
X168441905Y-125524819D02*
X168775238Y-126524819D01*
X168775238Y-126524819D02*
X169108571Y-125524819D01*
X177030237Y-95195533D02*
X176458809Y-95195533D01*
X176744523Y-95195533D02*
X176744523Y-94195533D01*
X176744523Y-94195533D02*
X176649285Y-94338390D01*
X176649285Y-94338390D02*
X176554047Y-94433628D01*
X176554047Y-94433628D02*
X176458809Y-94481247D01*
X177506428Y-95195533D02*
X177696904Y-95195533D01*
X177696904Y-95195533D02*
X177792142Y-95147914D01*
X177792142Y-95147914D02*
X177839761Y-95100294D01*
X177839761Y-95100294D02*
X177934999Y-94957437D01*
X177934999Y-94957437D02*
X177982618Y-94766961D01*
X177982618Y-94766961D02*
X177982618Y-94386009D01*
X177982618Y-94386009D02*
X177934999Y-94290771D01*
X177934999Y-94290771D02*
X177887380Y-94243152D01*
X177887380Y-94243152D02*
X177792142Y-94195533D01*
X177792142Y-94195533D02*
X177601666Y-94195533D01*
X177601666Y-94195533D02*
X177506428Y-94243152D01*
X177506428Y-94243152D02*
X177458809Y-94290771D01*
X177458809Y-94290771D02*
X177411190Y-94386009D01*
X177411190Y-94386009D02*
X177411190Y-94624104D01*
X177411190Y-94624104D02*
X177458809Y-94719342D01*
X177458809Y-94719342D02*
X177506428Y-94766961D01*
X177506428Y-94766961D02*
X177601666Y-94814580D01*
X177601666Y-94814580D02*
X177792142Y-94814580D01*
X177792142Y-94814580D02*
X177887380Y-94766961D01*
X177887380Y-94766961D02*
X177934999Y-94719342D01*
X177934999Y-94719342D02*
X177982618Y-94624104D01*
X160700476Y-93869819D02*
X160510000Y-93869819D01*
X160510000Y-93869819D02*
X160414762Y-93917438D01*
X160414762Y-93917438D02*
X160367143Y-93965057D01*
X160367143Y-93965057D02*
X160271905Y-94107914D01*
X160271905Y-94107914D02*
X160224286Y-94298390D01*
X160224286Y-94298390D02*
X160224286Y-94679342D01*
X160224286Y-94679342D02*
X160271905Y-94774580D01*
X160271905Y-94774580D02*
X160319524Y-94822200D01*
X160319524Y-94822200D02*
X160414762Y-94869819D01*
X160414762Y-94869819D02*
X160605238Y-94869819D01*
X160605238Y-94869819D02*
X160700476Y-94822200D01*
X160700476Y-94822200D02*
X160748095Y-94774580D01*
X160748095Y-94774580D02*
X160795714Y-94679342D01*
X160795714Y-94679342D02*
X160795714Y-94441247D01*
X160795714Y-94441247D02*
X160748095Y-94346009D01*
X160748095Y-94346009D02*
X160700476Y-94298390D01*
X160700476Y-94298390D02*
X160605238Y-94250771D01*
X160605238Y-94250771D02*
X160414762Y-94250771D01*
X160414762Y-94250771D02*
X160319524Y-94298390D01*
X160319524Y-94298390D02*
X160271905Y-94346009D01*
X160271905Y-94346009D02*
X160224286Y-94441247D01*
X185614524Y-84490057D02*
X185662143Y-84442438D01*
X185662143Y-84442438D02*
X185757381Y-84394819D01*
X185757381Y-84394819D02*
X185995476Y-84394819D01*
X185995476Y-84394819D02*
X186090714Y-84442438D01*
X186090714Y-84442438D02*
X186138333Y-84490057D01*
X186138333Y-84490057D02*
X186185952Y-84585295D01*
X186185952Y-84585295D02*
X186185952Y-84680533D01*
X186185952Y-84680533D02*
X186138333Y-84823390D01*
X186138333Y-84823390D02*
X185566905Y-85394819D01*
X185566905Y-85394819D02*
X186185952Y-85394819D01*
X186519286Y-84394819D02*
X187138333Y-84394819D01*
X187138333Y-84394819D02*
X186805000Y-84775771D01*
X186805000Y-84775771D02*
X186947857Y-84775771D01*
X186947857Y-84775771D02*
X187043095Y-84823390D01*
X187043095Y-84823390D02*
X187090714Y-84871009D01*
X187090714Y-84871009D02*
X187138333Y-84966247D01*
X187138333Y-84966247D02*
X187138333Y-85204342D01*
X187138333Y-85204342D02*
X187090714Y-85299580D01*
X187090714Y-85299580D02*
X187043095Y-85347200D01*
X187043095Y-85347200D02*
X186947857Y-85394819D01*
X186947857Y-85394819D02*
X186662143Y-85394819D01*
X186662143Y-85394819D02*
X186566905Y-85347200D01*
X186566905Y-85347200D02*
X186519286Y-85299580D01*
X167529523Y-110594819D02*
X166958095Y-110594819D01*
X167243809Y-110594819D02*
X167243809Y-109594819D01*
X167243809Y-109594819D02*
X167148571Y-109737676D01*
X167148571Y-109737676D02*
X167053333Y-109832914D01*
X167053333Y-109832914D02*
X166958095Y-109880533D01*
X167910476Y-109690057D02*
X167958095Y-109642438D01*
X167958095Y-109642438D02*
X168053333Y-109594819D01*
X168053333Y-109594819D02*
X168291428Y-109594819D01*
X168291428Y-109594819D02*
X168386666Y-109642438D01*
X168386666Y-109642438D02*
X168434285Y-109690057D01*
X168434285Y-109690057D02*
X168481904Y-109785295D01*
X168481904Y-109785295D02*
X168481904Y-109880533D01*
X168481904Y-109880533D02*
X168434285Y-110023390D01*
X168434285Y-110023390D02*
X167862857Y-110594819D01*
X167862857Y-110594819D02*
X168481904Y-110594819D01*
X177030237Y-97795533D02*
X176458809Y-97795533D01*
X176744523Y-97795533D02*
X176744523Y-96795533D01*
X176744523Y-96795533D02*
X176649285Y-96938390D01*
X176649285Y-96938390D02*
X176554047Y-97033628D01*
X176554047Y-97033628D02*
X176458809Y-97081247D01*
X177601666Y-97224104D02*
X177506428Y-97176485D01*
X177506428Y-97176485D02*
X177458809Y-97128866D01*
X177458809Y-97128866D02*
X177411190Y-97033628D01*
X177411190Y-97033628D02*
X177411190Y-96986009D01*
X177411190Y-96986009D02*
X177458809Y-96890771D01*
X177458809Y-96890771D02*
X177506428Y-96843152D01*
X177506428Y-96843152D02*
X177601666Y-96795533D01*
X177601666Y-96795533D02*
X177792142Y-96795533D01*
X177792142Y-96795533D02*
X177887380Y-96843152D01*
X177887380Y-96843152D02*
X177934999Y-96890771D01*
X177934999Y-96890771D02*
X177982618Y-96986009D01*
X177982618Y-96986009D02*
X177982618Y-97033628D01*
X177982618Y-97033628D02*
X177934999Y-97128866D01*
X177934999Y-97128866D02*
X177887380Y-97176485D01*
X177887380Y-97176485D02*
X177792142Y-97224104D01*
X177792142Y-97224104D02*
X177601666Y-97224104D01*
X177601666Y-97224104D02*
X177506428Y-97271723D01*
X177506428Y-97271723D02*
X177458809Y-97319342D01*
X177458809Y-97319342D02*
X177411190Y-97414580D01*
X177411190Y-97414580D02*
X177411190Y-97605056D01*
X177411190Y-97605056D02*
X177458809Y-97700294D01*
X177458809Y-97700294D02*
X177506428Y-97747914D01*
X177506428Y-97747914D02*
X177601666Y-97795533D01*
X177601666Y-97795533D02*
X177792142Y-97795533D01*
X177792142Y-97795533D02*
X177887380Y-97747914D01*
X177887380Y-97747914D02*
X177934999Y-97700294D01*
X177934999Y-97700294D02*
X177982618Y-97605056D01*
X177982618Y-97605056D02*
X177982618Y-97414580D01*
X177982618Y-97414580D02*
X177934999Y-97319342D01*
X177934999Y-97319342D02*
X177887380Y-97271723D01*
X177887380Y-97271723D02*
X177792142Y-97224104D01*
X167481904Y-91689819D02*
X167005714Y-91689819D01*
X167005714Y-91689819D02*
X166958095Y-92166009D01*
X166958095Y-92166009D02*
X167005714Y-92118390D01*
X167005714Y-92118390D02*
X167100952Y-92070771D01*
X167100952Y-92070771D02*
X167339047Y-92070771D01*
X167339047Y-92070771D02*
X167434285Y-92118390D01*
X167434285Y-92118390D02*
X167481904Y-92166009D01*
X167481904Y-92166009D02*
X167529523Y-92261247D01*
X167529523Y-92261247D02*
X167529523Y-92499342D01*
X167529523Y-92499342D02*
X167481904Y-92594580D01*
X167481904Y-92594580D02*
X167434285Y-92642200D01*
X167434285Y-92642200D02*
X167339047Y-92689819D01*
X167339047Y-92689819D02*
X167100952Y-92689819D01*
X167100952Y-92689819D02*
X167005714Y-92642200D01*
X167005714Y-92642200D02*
X166958095Y-92594580D01*
X180036666Y-73709819D02*
X180036666Y-74424104D01*
X180036666Y-74424104D02*
X179989047Y-74566961D01*
X179989047Y-74566961D02*
X179893809Y-74662200D01*
X179893809Y-74662200D02*
X179750952Y-74709819D01*
X179750952Y-74709819D02*
X179655714Y-74709819D01*
X180465238Y-73805057D02*
X180512857Y-73757438D01*
X180512857Y-73757438D02*
X180608095Y-73709819D01*
X180608095Y-73709819D02*
X180846190Y-73709819D01*
X180846190Y-73709819D02*
X180941428Y-73757438D01*
X180941428Y-73757438D02*
X180989047Y-73805057D01*
X180989047Y-73805057D02*
X181036666Y-73900295D01*
X181036666Y-73900295D02*
X181036666Y-73995533D01*
X181036666Y-73995533D02*
X180989047Y-74138390D01*
X180989047Y-74138390D02*
X180417619Y-74709819D01*
X180417619Y-74709819D02*
X181036666Y-74709819D01*
X164122857Y-73709819D02*
X164122857Y-74424104D01*
X164122857Y-74424104D02*
X164075238Y-74566961D01*
X164075238Y-74566961D02*
X163980000Y-74662200D01*
X163980000Y-74662200D02*
X163837143Y-74709819D01*
X163837143Y-74709819D02*
X163741905Y-74709819D01*
X165122857Y-74709819D02*
X164551429Y-74709819D01*
X164837143Y-74709819D02*
X164837143Y-73709819D01*
X164837143Y-73709819D02*
X164741905Y-73852676D01*
X164741905Y-73852676D02*
X164646667Y-73947914D01*
X164646667Y-73947914D02*
X164551429Y-73995533D01*
X166926666Y-114814819D02*
X166926666Y-115529104D01*
X166926666Y-115529104D02*
X166879047Y-115671961D01*
X166879047Y-115671961D02*
X166783809Y-115767200D01*
X166783809Y-115767200D02*
X166640952Y-115814819D01*
X166640952Y-115814819D02*
X166545714Y-115814819D01*
X167831428Y-114814819D02*
X167640952Y-114814819D01*
X167640952Y-114814819D02*
X167545714Y-114862438D01*
X167545714Y-114862438D02*
X167498095Y-114910057D01*
X167498095Y-114910057D02*
X167402857Y-115052914D01*
X167402857Y-115052914D02*
X167355238Y-115243390D01*
X167355238Y-115243390D02*
X167355238Y-115624342D01*
X167355238Y-115624342D02*
X167402857Y-115719580D01*
X167402857Y-115719580D02*
X167450476Y-115767200D01*
X167450476Y-115767200D02*
X167545714Y-115814819D01*
X167545714Y-115814819D02*
X167736190Y-115814819D01*
X167736190Y-115814819D02*
X167831428Y-115767200D01*
X167831428Y-115767200D02*
X167879047Y-115719580D01*
X167879047Y-115719580D02*
X167926666Y-115624342D01*
X167926666Y-115624342D02*
X167926666Y-115386247D01*
X167926666Y-115386247D02*
X167879047Y-115291009D01*
X167879047Y-115291009D02*
X167831428Y-115243390D01*
X167831428Y-115243390D02*
X167736190Y-115195771D01*
X167736190Y-115195771D02*
X167545714Y-115195771D01*
X167545714Y-115195771D02*
X167450476Y-115243390D01*
X167450476Y-115243390D02*
X167402857Y-115291009D01*
X167402857Y-115291009D02*
X167355238Y-115386247D01*
X176396666Y-114774819D02*
X176396666Y-115489104D01*
X176396666Y-115489104D02*
X176349047Y-115631961D01*
X176349047Y-115631961D02*
X176253809Y-115727200D01*
X176253809Y-115727200D02*
X176110952Y-115774819D01*
X176110952Y-115774819D02*
X176015714Y-115774819D01*
X176777619Y-114774819D02*
X177444285Y-114774819D01*
X177444285Y-114774819D02*
X177015714Y-115774819D01*
X171636666Y-114794819D02*
X171636666Y-115509104D01*
X171636666Y-115509104D02*
X171589047Y-115651961D01*
X171589047Y-115651961D02*
X171493809Y-115747200D01*
X171493809Y-115747200D02*
X171350952Y-115794819D01*
X171350952Y-115794819D02*
X171255714Y-115794819D01*
X172589047Y-114794819D02*
X172112857Y-114794819D01*
X172112857Y-114794819D02*
X172065238Y-115271009D01*
X172065238Y-115271009D02*
X172112857Y-115223390D01*
X172112857Y-115223390D02*
X172208095Y-115175771D01*
X172208095Y-115175771D02*
X172446190Y-115175771D01*
X172446190Y-115175771D02*
X172541428Y-115223390D01*
X172541428Y-115223390D02*
X172589047Y-115271009D01*
X172589047Y-115271009D02*
X172636666Y-115366247D01*
X172636666Y-115366247D02*
X172636666Y-115604342D01*
X172636666Y-115604342D02*
X172589047Y-115699580D01*
X172589047Y-115699580D02*
X172541428Y-115747200D01*
X172541428Y-115747200D02*
X172446190Y-115794819D01*
X172446190Y-115794819D02*
X172208095Y-115794819D01*
X172208095Y-115794819D02*
X172112857Y-115747200D01*
X172112857Y-115747200D02*
X172065238Y-115699580D01*
X189387381Y-74099819D02*
X189387381Y-74814104D01*
X189387381Y-74814104D02*
X189339762Y-74956961D01*
X189339762Y-74956961D02*
X189244524Y-75052200D01*
X189244524Y-75052200D02*
X189101667Y-75099819D01*
X189101667Y-75099819D02*
X189006429Y-75099819D01*
X190292143Y-74433152D02*
X190292143Y-75099819D01*
X190054048Y-74052200D02*
X189815953Y-74766485D01*
X189815953Y-74766485D02*
X190435000Y-74766485D01*
X154907857Y-74099819D02*
X154907857Y-74814104D01*
X154907857Y-74814104D02*
X154860238Y-74956961D01*
X154860238Y-74956961D02*
X154765000Y-75052200D01*
X154765000Y-75052200D02*
X154622143Y-75099819D01*
X154622143Y-75099819D02*
X154526905Y-75099819D01*
X155288810Y-74099819D02*
X155907857Y-74099819D01*
X155907857Y-74099819D02*
X155574524Y-74480771D01*
X155574524Y-74480771D02*
X155717381Y-74480771D01*
X155717381Y-74480771D02*
X155812619Y-74528390D01*
X155812619Y-74528390D02*
X155860238Y-74576009D01*
X155860238Y-74576009D02*
X155907857Y-74671247D01*
X155907857Y-74671247D02*
X155907857Y-74909342D01*
X155907857Y-74909342D02*
X155860238Y-75004580D01*
X155860238Y-75004580D02*
X155812619Y-75052200D01*
X155812619Y-75052200D02*
X155717381Y-75099819D01*
X155717381Y-75099819D02*
X155431667Y-75099819D01*
X155431667Y-75099819D02*
X155336429Y-75052200D01*
X155336429Y-75052200D02*
X155288810Y-75004580D01*
X149448095Y-128904819D02*
X149448095Y-127904819D01*
X149448095Y-128381009D02*
X150019523Y-128381009D01*
X150019523Y-128904819D02*
X150019523Y-127904819D01*
X150924285Y-128238152D02*
X150924285Y-128904819D01*
X150686190Y-127857200D02*
X150448095Y-128571485D01*
X150448095Y-128571485D02*
X151067142Y-128571485D01*
X193898095Y-128904819D02*
X193898095Y-127904819D01*
X193898095Y-128381009D02*
X194469523Y-128381009D01*
X194469523Y-128904819D02*
X194469523Y-127904819D01*
X194850476Y-127904819D02*
X195469523Y-127904819D01*
X195469523Y-127904819D02*
X195136190Y-128285771D01*
X195136190Y-128285771D02*
X195279047Y-128285771D01*
X195279047Y-128285771D02*
X195374285Y-128333390D01*
X195374285Y-128333390D02*
X195421904Y-128381009D01*
X195421904Y-128381009D02*
X195469523Y-128476247D01*
X195469523Y-128476247D02*
X195469523Y-128714342D01*
X195469523Y-128714342D02*
X195421904Y-128809580D01*
X195421904Y-128809580D02*
X195374285Y-128857200D01*
X195374285Y-128857200D02*
X195279047Y-128904819D01*
X195279047Y-128904819D02*
X194993333Y-128904819D01*
X194993333Y-128904819D02*
X194898095Y-128857200D01*
X194898095Y-128857200D02*
X194850476Y-128809580D01*
X193898095Y-72964819D02*
X193898095Y-71964819D01*
X193898095Y-72441009D02*
X194469523Y-72441009D01*
X194469523Y-72964819D02*
X194469523Y-71964819D01*
X194898095Y-72060057D02*
X194945714Y-72012438D01*
X194945714Y-72012438D02*
X195040952Y-71964819D01*
X195040952Y-71964819D02*
X195279047Y-71964819D01*
X195279047Y-71964819D02*
X195374285Y-72012438D01*
X195374285Y-72012438D02*
X195421904Y-72060057D01*
X195421904Y-72060057D02*
X195469523Y-72155295D01*
X195469523Y-72155295D02*
X195469523Y-72250533D01*
X195469523Y-72250533D02*
X195421904Y-72393390D01*
X195421904Y-72393390D02*
X194850476Y-72964819D01*
X194850476Y-72964819D02*
X195469523Y-72964819D01*
X149448095Y-72964819D02*
X149448095Y-71964819D01*
X149448095Y-72441009D02*
X150019523Y-72441009D01*
X150019523Y-72964819D02*
X150019523Y-71964819D01*
X151019523Y-72964819D02*
X150448095Y-72964819D01*
X150733809Y-72964819D02*
X150733809Y-71964819D01*
X150733809Y-71964819D02*
X150638571Y-72107676D01*
X150638571Y-72107676D02*
X150543333Y-72202914D01*
X150543333Y-72202914D02*
X150448095Y-72250533D01*
D11*
%TO.C,J2*%
X179040000Y-78295000D02*
X179040000Y-111375000D01*
X179040000Y-78295000D02*
X181700000Y-78295000D01*
X179040000Y-111375000D02*
X181700000Y-111375000D01*
X180370000Y-75695000D02*
X181700000Y-75695000D01*
X181700000Y-75695000D02*
X181700000Y-77025000D01*
X181700000Y-78295000D02*
X181700000Y-111375000D01*
%TO.C,J1*%
X163126191Y-78295000D02*
X163126191Y-111375000D01*
X163126191Y-78295000D02*
X165786191Y-78295000D01*
X163126191Y-111375000D02*
X165786191Y-111375000D01*
X164456191Y-75695000D02*
X165786191Y-75695000D01*
X165786191Y-75695000D02*
X165786191Y-77025000D01*
X165786191Y-78295000D02*
X165786191Y-111375000D01*
%TO.C,J6*%
X168770000Y-124320000D02*
X167390000Y-124320000D01*
X168770000Y-122940000D02*
X168770000Y-124320000D01*
X168770000Y-121670000D02*
X168770000Y-116480000D01*
X168770000Y-121670000D02*
X166010000Y-121670000D01*
X168770000Y-116480000D02*
X166010000Y-116480000D01*
X166010000Y-121670000D02*
X166010000Y-116480000D01*
%TO.C,J7*%
X178060000Y-124320000D02*
X176680000Y-124320000D01*
X178060000Y-122940000D02*
X178060000Y-124320000D01*
X178060000Y-121670000D02*
X178060000Y-116480000D01*
X178060000Y-121670000D02*
X175300000Y-121670000D01*
X178060000Y-116480000D02*
X175300000Y-116480000D01*
X175300000Y-121670000D02*
X175300000Y-116480000D01*
%TO.C,J5*%
X173460000Y-124320000D02*
X172080000Y-124320000D01*
X173460000Y-122940000D02*
X173460000Y-124320000D01*
X173460000Y-121670000D02*
X173460000Y-116480000D01*
X173460000Y-121670000D02*
X170700000Y-121670000D01*
X173460000Y-116480000D02*
X170700000Y-116480000D01*
X170700000Y-121670000D02*
X170700000Y-116480000D01*
%TO.C,J4*%
X188340715Y-75645000D02*
X189720715Y-75645000D01*
X188340715Y-77025000D02*
X188340715Y-75645000D01*
X188340715Y-78295000D02*
X188340715Y-111425000D01*
X188340715Y-78295000D02*
X191100715Y-78295000D01*
X188340715Y-111425000D02*
X191100715Y-111425000D01*
X191100715Y-78295000D02*
X191100715Y-111425000D01*
%TO.C,J3*%
X153861191Y-75645000D02*
X155241191Y-75645000D01*
X153861191Y-77025000D02*
X153861191Y-75645000D01*
X153861191Y-78295000D02*
X153861191Y-111425000D01*
X153861191Y-78295000D02*
X156621191Y-78295000D01*
X153861191Y-111425000D02*
X156621191Y-111425000D01*
X156621191Y-78295000D02*
X156621191Y-111425000D01*
%TD*%
M02*
